error_05_fix_pit_dim.ufo
<glyph name="ety001_cid02568_EL" format="1">
  <advance width="1000"/>
  <outline>
    <contour>
      <point x="295" y="302" type="curve"/>
      <point x="278" y="279" type="line"/>
      <point x="386" y="208"/>
      <point x="502" y="104"/>
      <point x="553" y="30" type="curve"/>
      <point x="572" y="57" type="line"/>
      <point x="523" y="128"/>
      <point x="406" y="230"/>
    </contour>
    <contour>
      <point x="434" y="828" type="curve"/>
      <point x="400" y="831" type="line"/>
      <point x="378" y="655"/>
      <point x="334" y="425"/>
      <point x="279" y="279" type="curve"/>
      <point x="286" y="277"/>
      <point x="300" y="271"/>
      <point x="307" y="268" type="curve"/>
      <point x="364" y="421"/>
      <point x="409" y="647"/>
    </contour>
  </outline>
</glyph>
<glyph name="ety002_cid02568_H" format="1">
  <advance width="1000"/>
  <outline>
    <contour>
      <point x="321" y="409" type="curve"/>
      <point x="249" y="311" type="line"/>
      <point x="350" y="222"/>
      <point x="479" y="98"/>
      <point x="533" y="13" type="curve"/>
      <point x="613" y="128" type="line"/>
      <point x="558" y="208"/>
      <point x="423" y="325"/>
    </contour>
    <contour>
      <point x="490" y="840" type="curve"/>
      <point x="352" y="853" type="line"/>
      <point x="335" y="671"/>
      <point x="295" y="428"/>
      <point x="251" y="311" type="curve"/>
      <point x="286" y="298"/>
      <point x="336" y="275"/>
      <point x="364" y="257" type="curve"/>
      <point x="414" y="389"/>
      <point x="462" y="645"/>
    </contour>
  </outline>
</glyph>
<glyph name="ety003_cid03180_H" format="1">
  <advance width="1000"/>
  <outline>
    <contour>
      <point x="114" y="346" type="curve"/>
      <point x="30" y="253" type="line"/>
      <point x="123" y="181"/>
      <point x="241" y="77"/>
      <point x="293" y="6" type="curve"/>
      <point x="385" y="113" type="line"/>
      <point x="330" y="183"/>
      <point x="206" y="280"/>
    </contour>
    <contour>
      <point x="259" y="842" type="curve"/>
      <point x="126" y="854" type="line"/>
      <point x="112" y="652"/>
      <point x="73" y="382"/>
      <point x="30" y="252" type="curve"/>
      <point x="66" y="240"/>
      <point x="115" y="218"/>
      <point x="142" y="200" type="curve"/>
      <point x="190" y="346"/>
      <point x="234" y="629"/>
    </contour>
  </outline>
</glyph>
<glyph name="ety004_cid03212_H" format="1">
  <advance width="1000"/>
  <outline>
    <contour>
      <point x="118" y="411" type="curve"/>
      <point x="38" y="309" type="line"/>
      <point x="142" y="218"/>
      <point x="276" y="90"/>
      <point x="332" y="3" type="curve"/>
      <point x="422" y="122" type="line"/>
      <point x="363" y="206"/>
      <point x="222" y="326"/>
    </contour>
    <contour>
      <point x="275" y="838" type="curve"/>
      <point x="136" y="852" type="line"/>
      <point x="120" y="669"/>
      <point x="81" y="425"/>
      <point x="39" y="310" type="curve"/>
      <point x="75" y="297"/>
      <point x="125" y="272"/>
      <point x="153" y="253" type="curve"/>
      <point x="202" y="383"/>
      <point x="248" y="641"/>
    </contour>
  </outline>
</glyph>
<glyph name="ety005_cid03225_EL" format="1">
  <advance width="1000"/>
  <outline>
    <contour>
      <point x="98" y="303" type="curve"/>
      <point x="75" y="286" type="line"/>
      <point x="178" y="218"/>
      <point x="291" y="115"/>
      <point x="342" y="42" type="curve"/>
      <point x="368" y="61" type="line"/>
      <point x="315" y="134"/>
      <point x="201" y="235"/>
    </contour>
    <contour>
      <point x="214" y="835" type="curve"/>
      <point x="182" y="838" type="line"/>
      <point x="163" y="663"/>
      <point x="125" y="432"/>
      <point x="76" y="286" type="curve"/>
      <point x="84" y="283"/>
      <point x="96" y="278"/>
      <point x="103" y="275" type="curve"/>
      <point x="153" y="428"/>
      <point x="192" y="656"/>
    </contour>
  </outline>
</glyph>
<glyph name="ety006_cid03225_H" format="1">
  <advance width="1000"/>
  <outline>
    <contour>
      <point x="111" y="381" type="curve"/>
      <point x="39" y="288" type="line"/>
      <point x="135" y="206"/>
      <point x="258" y="88"/>
      <point x="311" y="9" type="curve"/>
      <point x="391" y="117" type="line"/>
      <point x="335" y="194"/>
      <point x="207" y="304"/>
    </contour>
    <contour>
      <point x="247" y="827" type="curve"/>
      <point x="119" y="839" type="line"/>
      <point x="108" y="655"/>
      <point x="75" y="409"/>
      <point x="38" y="288" type="curve"/>
      <point x="72" y="276"/>
      <point x="119" y="254"/>
      <point x="144" y="237" type="curve"/>
      <point x="187" y="371"/>
      <point x="226" y="631"/>
    </contour>
  </outline>
</glyph>
<glyph name="ety007_cid03227_EL" format="1">
  <advance width="1000"/>
  <outline>
    <contour>
      <point x="102" y="301" type="curve"/>
      <point x="82" y="280" type="line"/>
      <point x="192" y="212"/>
      <point x="312" y="108"/>
      <point x="366" y="33" type="curve"/>
      <point x="387" y="57" type="line"/>
      <point x="334" y="131"/>
      <point x="213" y="232"/>
    </contour>
    <contour>
      <point x="227" y="829" type="curve"/>
      <point x="194" y="832" type="line"/>
      <point x="175" y="656"/>
      <point x="133" y="426"/>
      <point x="83" y="280" type="curve"/>
      <point x="89" y="278"/>
      <point x="102" y="272"/>
      <point x="108" y="269" type="curve"/>
      <point x="161" y="422"/>
      <point x="203" y="648"/>
    </contour>
  </outline>
</glyph>
<glyph name="ety008_cid03227_H" format="1">
  <advance width="1000"/>
  <outline>
    <contour>
      <point x="117" y="411" type="curve"/>
      <point x="40" y="309" type="line"/>
      <point x="140" y="218"/>
      <point x="269" y="90"/>
      <point x="323" y="3" type="curve"/>
      <point x="409" y="122" type="line"/>
      <point x="352" y="206"/>
      <point x="217" y="326"/>
    </contour>
    <contour>
      <point x="268" y="838" type="curve"/>
      <point x="134" y="852" type="line"/>
      <point x="119" y="669"/>
      <point x="81" y="425"/>
      <point x="40" y="310" type="curve"/>
      <point x="75" y="297"/>
      <point x="124" y="272"/>
      <point x="150" y="253" type="curve"/>
      <point x="197" y="383"/>
      <point x="242" y="641"/>
    </contour>
  </outline>
</glyph>
<glyph name="ety009_cid03229_H" format="1">
  <advance width="1000"/>
  <outline>
    <contour>
      <point x="125" y="392" type="curve"/>
      <point x="35" y="310" type="line"/>
      <point x="133" y="219"/>
      <point x="253" y="91"/>
      <point x="304" y="6" type="curve"/>
      <point x="404" y="101" type="line"/>
      <point x="349" y="185"/>
      <point x="222" y="306"/>
    </contour>
    <contour>
      <point x="267" y="838" type="curve"/>
      <point x="132" y="852" type="line"/>
      <point x="117" y="669"/>
      <point x="79" y="425"/>
      <point x="38" y="310" type="curve"/>
      <point x="73" y="297"/>
      <point x="122" y="272"/>
      <point x="148" y="253" type="curve"/>
      <point x="196" y="383"/>
      <point x="241" y="641"/>
    </contour>
  </outline>
</glyph>
<glyph name="ety010_cid03230_H" format="1">
  <advance width="1000"/>
  <outline>
    <contour>
      <point x="119" y="343" type="curve"/>
      <point x="30" y="253" type="line"/>
      <point x="129" y="167"/>
      <point x="253" y="45"/>
      <point x="306" y="-37" type="curve"/>
      <point x="404" y="67" type="line"/>
      <point x="347" y="148"/>
      <point x="216" y="263"/>
    </contour>
    <contour>
      <point x="259" y="842" type="curve"/>
      <point x="126" y="854" type="line"/>
      <point x="112" y="652"/>
      <point x="73" y="382"/>
      <point x="30" y="252" type="curve"/>
      <point x="66" y="240"/>
      <point x="115" y="218"/>
      <point x="142" y="200" type="curve"/>
      <point x="190" y="346"/>
      <point x="234" y="629"/>
    </contour>
  </outline>
</glyph>
<glyph name="ety011_cid03231_H" format="1">
  <advance width="1000"/>
  <outline>
    <contour>
      <point x="111" y="349" type="curve"/>
      <point x="30" y="253" type="line"/>
      <point x="128" y="183"/>
      <point x="255" y="80"/>
      <point x="311" y="10" type="curve"/>
      <point x="400" y="120" type="line"/>
      <point x="340" y="190"/>
      <point x="207" y="285"/>
    </contour>
    <contour>
      <point x="259" y="842" type="curve"/>
      <point x="126" y="854" type="line"/>
      <point x="112" y="652"/>
      <point x="73" y="382"/>
      <point x="30" y="252" type="curve"/>
      <point x="66" y="240"/>
      <point x="115" y="218"/>
      <point x="142" y="200" type="curve"/>
      <point x="190" y="346"/>
      <point x="234" y="629"/>
    </contour>
  </outline>
</glyph>
<glyph name="ety013_cid03234_H" format="1">
  <advance width="1000"/>
  <outline>
    <contour>
      <point x="121" y="409" type="curve"/>
      <point x="42" y="307" type="line"/>
      <point x="145" y="216"/>
      <point x="277" y="88"/>
      <point x="332" y="1" type="curve"/>
      <point x="420" y="120" type="line"/>
      <point x="362" y="204"/>
      <point x="223" y="324"/>
    </contour>
    <contour>
      <point x="271" y="838" type="curve"/>
      <point x="134" y="852" type="line"/>
      <point x="119" y="669"/>
      <point x="80" y="425"/>
      <point x="38" y="310" type="curve"/>
      <point x="74" y="297"/>
      <point x="123" y="272"/>
      <point x="151" y="253" type="curve"/>
      <point x="199" y="383"/>
      <point x="244" y="641"/>
    </contour>
  </outline>
</glyph>
<glyph name="ety014_cid03237_EL" format="1">
  <advance width="1000"/>
  <outline>
    <contour>
      <point x="101" y="301" type="curve"/>
      <point x="81" y="280" type="line"/>
      <point x="190" y="212"/>
      <point x="309" y="108"/>
      <point x="362" y="33" type="curve"/>
      <point x="384" y="57" type="line"/>
      <point x="331" y="131"/>
      <point x="212" y="232"/>
    </contour>
    <contour>
      <point x="223" y="829" type="curve"/>
      <point x="191" y="832" type="line"/>
      <point x="172" y="656"/>
      <point x="132" y="426"/>
      <point x="82" y="280" type="curve"/>
      <point x="88" y="278"/>
      <point x="101" y="272"/>
      <point x="107" y="269" type="curve"/>
      <point x="159" y="422"/>
      <point x="199" y="648"/>
    </contour>
  </outline>
</glyph>
<glyph name="ety015_cid03237_H" format="1">
  <advance width="1000"/>
  <outline>
    <contour>
      <point x="114" y="412" type="curve"/>
      <point x="37" y="310" type="line"/>
      <point x="133" y="223"/>
      <point x="257" y="100"/>
      <point x="309" y="16" type="curve"/>
      <point x="394" y="135" type="line"/>
      <point x="340" y="216"/>
      <point x="210" y="331"/>
    </contour>
    <contour>
      <point x="266" y="838" type="curve"/>
      <point x="132" y="852" type="line"/>
      <point x="117" y="669"/>
      <point x="79" y="425"/>
      <point x="38" y="310" type="curve"/>
      <point x="73" y="297"/>
      <point x="122" y="272"/>
      <point x="148" y="253" type="curve"/>
      <point x="195" y="383"/>
      <point x="240" y="641"/>
    </contour>
  </outline>
</glyph>
<glyph name="ety017_cid03246_H" format="1">
  <advance width="1000"/>
  <outline>
    <contour>
      <point x="110" y="412" type="curve"/>
      <point x="36" y="310" type="line"/>
      <point x="127" y="224"/>
      <point x="245" y="102"/>
      <point x="294" y="19" type="curve"/>
      <point x="376" y="138" type="line"/>
      <point x="324" y="218"/>
      <point x="201" y="332"/>
    </contour>
    <contour>
      <point x="253" y="838" type="curve"/>
      <point x="126" y="852" type="line"/>
      <point x="112" y="669"/>
      <point x="76" y="425"/>
      <point x="37" y="310" type="curve"/>
      <point x="70" y="297"/>
      <point x="116" y="272"/>
      <point x="141" y="253" type="curve"/>
      <point x="186" y="383"/>
      <point x="228" y="641"/>
    </contour>
  </outline>
</glyph>
<glyph name="ety018_cid03248_H" format="1">
  <advance width="1000"/>
  <outline>
    <contour>
      <point x="113" y="348" type="curve"/>
      <point x="30" y="253" type="line"/>
      <point x="131" y="178"/>
      <point x="261" y="69"/>
      <point x="317" y="-6" type="curve"/>
      <point x="409" y="103" type="line"/>
      <point x="347" y="177"/>
      <point x="212" y="279"/>
    </contour>
    <contour>
      <point x="259" y="842" type="curve"/>
      <point x="126" y="854" type="line"/>
      <point x="112" y="652"/>
      <point x="73" y="382"/>
      <point x="30" y="252" type="curve"/>
      <point x="66" y="240"/>
      <point x="115" y="218"/>
      <point x="142" y="200" type="curve"/>
      <point x="190" y="346"/>
      <point x="234" y="629"/>
    </contour>
  </outline>
</glyph>
<glyph name="ety019_cid03249_H" format="1">
  <advance width="1000"/>
  <outline>
    <contour>
      <point x="118" y="342" type="curve"/>
      <point x="30" y="253" type="line"/>
      <point x="118" y="176"/>
      <point x="230" y="67"/>
      <point x="277" y="-7" type="curve"/>
      <point x="375" y="96" type="line"/>
      <point x="323" y="169"/>
      <point x="206" y="271"/>
    </contour>
    <contour>
      <point x="259" y="842" type="curve"/>
      <point x="126" y="854" type="line"/>
      <point x="112" y="652"/>
      <point x="73" y="382"/>
      <point x="30" y="252" type="curve"/>
      <point x="66" y="240"/>
      <point x="115" y="218"/>
      <point x="142" y="200" type="curve"/>
      <point x="190" y="346"/>
      <point x="234" y="629"/>
    </contour>
  </outline>
</glyph>
<glyph name="ety020_cid03253_H" format="1">
  <advance width="1000"/>
  <outline>
    <contour>
      <point x="116" y="408" type="curve"/>
      <point x="38" y="309" type="line"/>
      <point x="142" y="220"/>
      <point x="274" y="95"/>
      <point x="329" y="9" type="curve"/>
      <point x="417" y="125" type="line"/>
      <point x="358" y="208"/>
      <point x="220" y="325"/>
    </contour>
    <contour>
      <point x="275" y="838" type="curve"/>
      <point x="137" y="852" type="line"/>
      <point x="121" y="669"/>
      <point x="82" y="426"/>
      <point x="39" y="310" type="curve"/>
      <point x="75" y="297"/>
      <point x="125" y="273"/>
      <point x="152" y="254" type="curve"/>
      <point x="201" y="385"/>
      <point x="247" y="642"/>
    </contour>
  </outline>
</glyph>
<glyph name="ety021_cid03258_H" format="1">
  <advance width="1000"/>
  <outline>
    <contour>
      <point x="115" y="342" type="curve"/>
      <point x="29" y="252" type="line"/>
      <point x="125" y="166"/>
      <point x="246" y="44"/>
      <point x="298" y="-38" type="curve"/>
      <point x="393" y="66" type="line"/>
      <point x="337" y="147"/>
      <point x="210" y="262"/>
    </contour>
    <contour>
      <point x="253" y="842" type="curve"/>
      <point x="123" y="854" type="line"/>
      <point x="109" y="652"/>
      <point x="71" y="382"/>
      <point x="30" y="252" type="curve"/>
      <point x="64" y="240"/>
      <point x="112" y="218"/>
      <point x="138" y="200" type="curve"/>
      <point x="185" y="346"/>
      <point x="229" y="629"/>
    </contour>
  </outline>
</glyph>
<glyph name="ety022_cid03261_H" format="1">
  <advance width="1000"/>
  <outline>
    <contour>
      <point x="112" y="379" type="curve"/>
      <point x="40" y="289" type="line"/>
      <point x="137" y="208"/>
      <point x="260" y="91"/>
      <point x="314" y="13" type="curve"/>
      <point x="393" y="118" type="line"/>
      <point x="337" y="194"/>
      <point x="208" y="303"/>
    </contour>
    <contour>
      <point x="251" y="827" type="curve"/>
      <point x="121" y="839" type="line"/>
      <point x="110" y="655"/>
      <point x="77" y="409"/>
      <point x="39" y="288" type="curve"/>
      <point x="73" y="276"/>
      <point x="121" y="254"/>
      <point x="147" y="237" type="curve"/>
      <point x="190" y="371"/>
      <point x="230" y="631"/>
    </contour>
  </outline>
</glyph>
<glyph name="ety023_cid03262_H" format="1">
  <advance width="1000"/>
  <outline>
    <contour>
      <point x="113" y="343" type="curve"/>
      <point x="28" y="253" type="line"/>
      <point x="122" y="167"/>
      <point x="242" y="45"/>
      <point x="292" y="-37" type="curve"/>
      <point x="386" y="67" type="line"/>
      <point x="331" y="148"/>
      <point x="206" y="263"/>
    </contour>
    <contour>
      <point x="248" y="842" type="curve"/>
      <point x="121" y="854" type="line"/>
      <point x="107" y="652"/>
      <point x="70" y="382"/>
      <point x="29" y="252" type="curve"/>
      <point x="63" y="240"/>
      <point x="110" y="218"/>
      <point x="136" y="200" type="curve"/>
      <point x="182" y="346"/>
      <point x="225" y="629"/>
    </contour>
  </outline>
</glyph>
<glyph name="ety024_cid03266_EL" format="1">
  <advance width="1000"/>
  <outline>
    <contour>
      <point x="99" y="299" type="curve"/>
      <point x="77" y="280" type="line"/>
      <point x="188" y="208"/>
      <point x="309" y="99"/>
      <point x="363" y="20" type="curve"/>
      <point x="386" y="40" type="line"/>
      <point x="331" y="119"/>
      <point x="211" y="227"/>
    </contour>
    <contour>
      <point x="245" y="829" type="curve"/>
      <point x="212" y="832" type="line"/>
      <point x="187" y="654"/>
      <point x="138" y="425"/>
      <point x="78" y="280" type="curve"/>
      <point x="85" y="278"/>
      <point x="97" y="272"/>
      <point x="104" y="269" type="curve"/>
      <point x="166" y="421"/>
      <point x="217" y="646"/>
    </contour>
  </outline>
</glyph>
<glyph name="ety025_cid03267_H" format="1">
  <advance width="1000"/>
  <outline>
    <contour>
      <point x="112" y="342" type="curve"/>
      <point x="29" y="253" type="line"/>
      <point x="110" y="178"/>
      <point x="213" y="71"/>
      <point x="257" y="-1" type="curve"/>
      <point x="348" y="102" type="line"/>
      <point x="301" y="173"/>
      <point x="193" y="273"/>
    </contour>
    <contour>
      <point x="246" y="842" type="curve"/>
      <point x="120" y="854" type="line"/>
      <point x="106" y="652"/>
      <point x="70" y="382"/>
      <point x="30" y="252" type="curve"/>
      <point x="63" y="240"/>
      <point x="109" y="218"/>
      <point x="135" y="200" type="curve"/>
      <point x="180" y="346"/>
      <point x="222" y="629"/>
    </contour>
  </outline>
</glyph>
<glyph name="ety026_cid03269_EL" format="1">
  <advance width="1000"/>
  <outline>
    <contour>
      <point x="90" y="300" type="curve"/>
      <point x="68" y="281" type="line"/>
      <point x="178" y="210"/>
      <point x="296" y="102"/>
      <point x="349" y="23" type="curve"/>
      <point x="373" y="43" type="line"/>
      <point x="320" y="122"/>
      <point x="200" y="229"/>
    </contour>
    <contour>
      <point x="209" y="830" type="curve"/>
      <point x="177" y="833" type="line"/>
      <point x="158" y="658"/>
      <point x="118" y="427"/>
      <point x="67" y="281" type="curve"/>
      <point x="75" y="278"/>
      <point x="87" y="273"/>
      <point x="94" y="270" type="curve"/>
      <point x="145" y="423"/>
      <point x="186" y="650"/>
    </contour>
  </outline>
</glyph>
<glyph name="ety027_cid03269_H" format="1">
  <advance width="1000"/>
  <outline>
    <contour>
      <point x="111" y="343" type="curve"/>
      <point x="29" y="253" type="line"/>
      <point x="119" y="168"/>
      <point x="232" y="47"/>
      <point x="280" y="-34" type="curve"/>
      <point x="371" y="70" type="line"/>
      <point x="318" y="150"/>
      <point x="199" y="264"/>
    </contour>
    <contour>
      <point x="239" y="842" type="curve"/>
      <point x="117" y="854" type="line"/>
      <point x="104" y="652"/>
      <point x="68" y="382"/>
      <point x="29" y="252" type="curve"/>
      <point x="62" y="240"/>
      <point x="106" y="218"/>
      <point x="132" y="200" type="curve"/>
      <point x="176" y="346"/>
      <point x="217" y="629"/>
    </contour>
  </outline>
</glyph>
<glyph name="ety028_cid03270_H" format="1">
  <advance width="1000"/>
  <outline>
    <contour>
      <point x="114" y="349" type="curve"/>
      <point x="33" y="253" type="line"/>
      <point x="129" y="186"/>
      <point x="254" y="86"/>
      <point x="309" y="17" type="curve"/>
      <point x="398" y="128" type="line"/>
      <point x="338" y="195"/>
      <point x="208" y="288"/>
    </contour>
    <contour>
      <point x="262" y="842" type="curve"/>
      <point x="129" y="854" type="line"/>
      <point x="115" y="652"/>
      <point x="76" y="382"/>
      <point x="33" y="252" type="curve"/>
      <point x="69" y="240"/>
      <point x="118" y="218"/>
      <point x="145" y="200" type="curve"/>
      <point x="193" y="346"/>
      <point x="237" y="629"/>
    </contour>
  </outline>
</glyph>
<glyph name="ety029_cid03274_EL" format="1">
  <advance width="1000"/>
  <outline>
    <contour>
      <point x="216" y="835" type="curve"/>
      <point x="183" y="838" type="line"/>
      <point x="165" y="663"/>
      <point x="127" y="432"/>
      <point x="78" y="286" type="curve"/>
      <point x="85" y="283"/>
      <point x="98" y="278"/>
      <point x="105" y="275" type="curve"/>
      <point x="155" y="428"/>
      <point x="194" y="656"/>
    </contour>
    <contour>
      <point x="99" y="304" type="curve"/>
      <point x="77" y="286" type="line"/>
      <point x="167" y="230"/>
      <point x="268" y="146"/>
      <point x="315" y="86" type="curve"/>
      <point x="338" y="106" type="line"/>
      <point x="291" y="167"/>
      <point x="189" y="250"/>
    </contour>
  </outline>
</glyph>
<glyph name="ety031_cid03284_H" format="1">
  <advance width="1000"/>
  <outline>
    <contour>
      <point x="114" y="347" type="curve"/>
      <point x="30" y="253" type="line"/>
      <point x="130" y="177"/>
      <point x="258" y="66"/>
      <point x="313" y="-10" type="curve"/>
      <point x="406" y="99" type="line"/>
      <point x="346" y="173"/>
      <point x="212" y="276"/>
    </contour>
    <contour>
      <point x="259" y="842" type="curve"/>
      <point x="126" y="854" type="line"/>
      <point x="112" y="652"/>
      <point x="73" y="382"/>
      <point x="30" y="252" type="curve"/>
      <point x="66" y="240"/>
      <point x="115" y="218"/>
      <point x="142" y="200" type="curve"/>
      <point x="190" y="346"/>
      <point x="234" y="629"/>
    </contour>
  </outline>
</glyph>
<glyph name="ety032_cid03285_H" format="1">
  <advance width="1000"/>
  <outline>
    <contour>
      <point x="108" y="343" type="curve"/>
      <point x="29" y="253" type="line"/>
      <point x="117" y="167"/>
      <point x="229" y="45"/>
      <point x="276" y="-37" type="curve"/>
      <point x="364" y="67" type="line"/>
      <point x="313" y="148"/>
      <point x="196" y="263"/>
    </contour>
    <contour>
      <point x="234" y="842" type="curve"/>
      <point x="115" y="854" type="line"/>
      <point x="102" y="652"/>
      <point x="68" y="382"/>
      <point x="29" y="252" type="curve"/>
      <point x="61" y="240"/>
      <point x="105" y="218"/>
      <point x="129" y="200" type="curve"/>
      <point x="172" y="346"/>
      <point x="212" y="629"/>
    </contour>
  </outline>
</glyph>
<glyph name="ety033_cid03292_H" format="1">
  <advance width="1000"/>
  <outline>
    <contour>
      <point x="108" y="348" type="curve"/>
      <point x="31" y="252" type="line"/>
      <point x="117" y="173"/>
      <point x="227" y="61"/>
      <point x="274" y="-16" type="curve"/>
      <point x="359" y="95" type="line"/>
      <point x="309" y="170"/>
      <point x="194" y="275"/>
    </contour>
    <contour>
      <point x="248" y="842" type="curve"/>
      <point x="122" y="854" type="line"/>
      <point x="108" y="652"/>
      <point x="72" y="382"/>
      <point x="32" y="252" type="curve"/>
      <point x="65" y="240"/>
      <point x="111" y="218"/>
      <point x="137" y="200" type="curve"/>
      <point x="182" y="346"/>
      <point x="224" y="629"/>
    </contour>
  </outline>
</glyph>
<glyph name="ety034_cid03300_H" format="1">
  <advance width="1000"/>
  <outline>
    <contour>
      <point x="105" y="383" type="curve"/>
      <point x="39" y="289" type="line"/>
      <point x="128" y="208"/>
      <point x="243" y="92"/>
      <point x="293" y="13" type="curve"/>
      <point x="365" y="123" type="line"/>
      <point x="313" y="199"/>
      <point x="193" y="307"/>
    </contour>
    <contour>
      <point x="230" y="827" type="curve"/>
      <point x="112" y="839" type="line"/>
      <point x="102" y="655"/>
      <point x="72" y="409"/>
      <point x="38" y="288" type="curve"/>
      <point x="68" y="276"/>
      <point x="112" y="254"/>
      <point x="135" y="237" type="curve"/>
      <point x="175" y="371"/>
      <point x="210" y="631"/>
    </contour>
  </outline>
</glyph>
<glyph name="ety035_cid03301_EL" format="1">
  <advance width="1000"/>
  <outline>
    <contour>
      <point x="99" y="304" type="curve"/>
      <point x="77" y="286" type="line"/>
      <point x="172" y="226"/>
      <point x="279" y="134"/>
      <point x="328" y="70" type="curve"/>
      <point x="351" y="89" type="line"/>
      <point x="301" y="155"/>
      <point x="195" y="244"/>
    </contour>
    <contour>
      <point x="216" y="835" type="curve"/>
      <point x="183" y="838" type="line"/>
      <point x="165" y="663"/>
      <point x="127" y="432"/>
      <point x="78" y="286" type="curve"/>
      <point x="85" y="283"/>
      <point x="98" y="278"/>
      <point x="105" y="275" type="curve"/>
      <point x="155" y="428"/>
      <point x="194" y="656"/>
    </contour>
  </outline>
</glyph>
<glyph name="ety036_cid03301_H" format="1">
  <advance width="1000"/>
  <outline>
    <contour>
      <point x="112" y="383" type="curve"/>
      <point x="40" y="289" type="line"/>
      <point x="130" y="215"/>
      <point x="247" y="109"/>
      <point x="297" y="37" type="curve"/>
      <point x="377" y="145" type="line"/>
      <point x="323" y="215"/>
      <point x="202" y="314"/>
    </contour>
    <contour>
      <point x="251" y="827" type="curve"/>
      <point x="121" y="839" type="line"/>
      <point x="110" y="655"/>
      <point x="77" y="409"/>
      <point x="39" y="288" type="curve"/>
      <point x="73" y="276"/>
      <point x="121" y="254"/>
      <point x="147" y="237" type="curve"/>
      <point x="190" y="371"/>
      <point x="230" y="631"/>
    </contour>
  </outline>
</glyph>
<glyph name="ety037_cid03304_EL" format="1">
  <advance width="1000"/>
  <outline>
    <contour>
      <point x="100" y="303" type="curve"/>
      <point x="77" y="286" type="line"/>
      <point x="175" y="221"/>
      <point x="283" y="123"/>
      <point x="332" y="53" type="curve"/>
      <point x="357" y="73" type="line"/>
      <point x="307" y="142"/>
      <point x="198" y="238"/>
    </contour>
    <contour>
      <point x="216" y="835" type="curve"/>
      <point x="183" y="838" type="line"/>
      <point x="165" y="663"/>
      <point x="127" y="432"/>
      <point x="78" y="286" type="curve"/>
      <point x="85" y="283"/>
      <point x="98" y="278"/>
      <point x="105" y="275" type="curve"/>
      <point x="155" y="428"/>
      <point x="194" y="656"/>
    </contour>
  </outline>
</glyph>
<glyph name="ety038_cid03304_H" format="1">
  <advance width="1000"/>
  <outline>
    <contour>
      <point x="113" y="382" type="curve"/>
      <point x="40" y="289" type="line"/>
      <point x="128" y="215"/>
      <point x="241" y="109"/>
      <point x="290" y="37" type="curve"/>
      <point x="371" y="144" type="line"/>
      <point x="319" y="213"/>
      <point x="201" y="313"/>
    </contour>
    <contour>
      <point x="251" y="827" type="curve"/>
      <point x="121" y="839" type="line"/>
      <point x="110" y="655"/>
      <point x="77" y="409"/>
      <point x="39" y="288" type="curve"/>
      <point x="73" y="276"/>
      <point x="121" y="254"/>
      <point x="147" y="237" type="curve"/>
      <point x="190" y="371"/>
      <point x="230" y="631"/>
    </contour>
  </outline>
</glyph>
<glyph name="ety039_cid03317_EL" format="1">
  <advance width="1000"/>
  <outline>
    <contour>
      <point x="99" y="304" type="curve"/>
      <point x="77" y="286" type="line"/>
      <point x="177" y="223"/>
      <point x="288" y="128"/>
      <point x="339" y="59" type="curve"/>
      <point x="364" y="80" type="line"/>
      <point x="312" y="147"/>
      <point x="200" y="241"/>
    </contour>
    <contour>
      <point x="216" y="835" type="curve"/>
      <point x="183" y="838" type="line"/>
      <point x="165" y="663"/>
      <point x="127" y="432"/>
      <point x="78" y="286" type="curve"/>
      <point x="85" y="283"/>
      <point x="98" y="278"/>
      <point x="105" y="275" type="curve"/>
      <point x="155" y="428"/>
      <point x="194" y="656"/>
    </contour>
  </outline>
</glyph>
<glyph name="ety040_cid03317_H" format="1">
  <advance width="1000"/>
  <outline>
    <contour>
      <point x="110" y="382" type="curve"/>
      <point x="38" y="289" type="line"/>
      <point x="124" y="213"/>
      <point x="234" y="105"/>
      <point x="281" y="32" type="curve"/>
      <point x="360" y="139" type="line"/>
      <point x="310" y="210"/>
      <point x="195" y="311"/>
    </contour>
    <contour>
      <point x="242" y="827" type="curve"/>
      <point x="117" y="839" type="line"/>
      <point x="106" y="655"/>
      <point x="74" y="409"/>
      <point x="38" y="288" type="curve"/>
      <point x="71" y="276"/>
      <point x="117" y="254"/>
      <point x="142" y="237" type="curve"/>
      <point x="184" y="371"/>
      <point x="222" y="631"/>
    </contour>
  </outline>
</glyph>
<glyph name="ety041_cid03321_EL" format="1">
  <advance width="1000"/>
  <outline>
    <contour>
      <point x="98" y="303" type="curve"/>
      <point x="76" y="286" type="line"/>
      <point x="163" y="226"/>
      <point x="260" y="136"/>
      <point x="304" y="73" type="curve"/>
      <point x="328" y="91" type="line"/>
      <point x="283" y="155"/>
      <point x="185" y="244"/>
    </contour>
    <contour>
      <point x="213" y="835" type="curve"/>
      <point x="180" y="838" type="line"/>
      <point x="162" y="663"/>
      <point x="125" y="432"/>
      <point x="77" y="286" type="curve"/>
      <point x="84" y="283"/>
      <point x="97" y="278"/>
      <point x="104" y="274" type="curve"/>
      <point x="153" y="427"/>
      <point x="191" y="655"/>
    </contour>
  </outline>
</glyph>
<glyph name="ety042_cid03321_H" format="1">
  <advance width="1000"/>
  <outline>
    <contour>
      <point x="107" y="382" type="curve"/>
      <point x="39" y="289" type="line"/>
      <point x="122" y="213"/>
      <point x="229" y="104"/>
      <point x="275" y="31" type="curve"/>
      <point x="349" y="138" type="line"/>
      <point x="301" y="209"/>
      <point x="189" y="311"/>
    </contour>
    <contour>
      <point x="233" y="827" type="curve"/>
      <point x="113" y="839" type="line"/>
      <point x="102" y="655"/>
      <point x="72" y="409"/>
      <point x="38" y="288" type="curve"/>
      <point x="69" y="276"/>
      <point x="113" y="254"/>
      <point x="137" y="237" type="curve"/>
      <point x="177" y="371"/>
      <point x="213" y="631"/>
    </contour>
  </outline>
</glyph>
<glyph name="ety043_cid03324_H" format="1">
  <advance width="1000"/>
  <outline>
    <contour>
      <point x="224" y="842" type="curve"/>
      <point x="103" y="854" type="line"/>
      <point x="93" y="664"/>
      <point x="62" y="400"/>
      <point x="30" y="275" type="curve"/>
      <point x="62" y="263"/>
      <point x="107" y="242"/>
      <point x="132" y="225" type="curve"/>
      <point x="169" y="364"/>
      <point x="205" y="640"/>
    </contour>
    <contour>
      <point x="95" y="363" type="curve"/>
      <point x="30" y="274" type="line"/>
      <point x="111" y="191"/>
      <point x="204" y="74"/>
      <point x="240" y="-7" type="curve"/>
      <point x="313" y="96" type="line"/>
      <point x="276" y="174"/>
      <point x="178" y="283"/>
    </contour>
  </outline>
</glyph>
<glyph name="ety044_cid03327_EL" format="1">
  <advance width="1000"/>
  <outline>
    <contour>
      <point x="99" y="304" type="curve"/>
      <point x="77" y="286" type="line"/>
      <point x="181" y="221"/>
      <point x="296" y="122"/>
      <point x="349" y="51" type="curve"/>
      <point x="374" y="71" type="line"/>
      <point x="320" y="142"/>
      <point x="203" y="239"/>
    </contour>
    <contour>
      <point x="216" y="835" type="curve"/>
      <point x="183" y="838" type="line"/>
      <point x="165" y="663"/>
      <point x="127" y="432"/>
      <point x="78" y="286" type="curve"/>
      <point x="85" y="283"/>
      <point x="98" y="278"/>
      <point x="105" y="275" type="curve"/>
      <point x="155" y="428"/>
      <point x="194" y="656"/>
    </contour>
  </outline>
</glyph>
<glyph name="ety046_cid03332_EL" format="1">
  <advance width="1000"/>
  <outline>
    <contour>
      <point x="653" y="312" type="curve"/>
      <point x="623" y="320" type="line"/>
      <point x="580" y="243"/>
      <point x="518" y="140"/>
      <point x="472" y="77" type="curve"/>
      <point x="505" y="73" type="line"/>
      <point x="547" y="134"/>
      <point x="609" y="234"/>
    </contour>
    <contour>
      <point x="492" y="96" type="curve"/>
      <point x="472" y="76" type="line"/>
      <point x="623" y="42"/>
      <point x="810" y="-18"/>
      <point x="907" y="-65" type="curve"/>
      <point x="928" y="-42" type="line"/>
      <point x="825" y="8"/>
      <point x="639" y="65"/>
    </contour>
  </outline>
</glyph>
<glyph name="ety047_cid03334_H" format="1">
  <advance width="1000"/>
  <outline>
    <contour>
      <point x="107" y="382" type="curve"/>
      <point x="39" y="289" type="line"/>
      <point x="129" y="207"/>
      <point x="245" y="89"/>
      <point x="296" y="10" type="curve"/>
      <point x="371" y="118" type="line"/>
      <point x="318" y="195"/>
      <point x="197" y="305"/>
    </contour>
    <contour>
      <point x="234" y="827" type="curve"/>
      <point x="114" y="839" type="line"/>
      <point x="103" y="655"/>
      <point x="73" y="409"/>
      <point x="38" y="288" type="curve"/>
      <point x="69" y="276"/>
      <point x="114" y="254"/>
      <point x="138" y="237" type="curve"/>
      <point x="178" y="371"/>
      <point x="215" y="631"/>
    </contour>
  </outline>
</glyph>
<glyph name="ety048_cid03337_EL" format="1">
  <advance width="1000"/>
  <outline>
    <contour>
      <point x="89" y="300" type="curve"/>
      <point x="68" y="281" type="line"/>
      <point x="172" y="219"/>
      <point x="285" y="122"/>
      <point x="337" y="50" type="curve"/>
      <point x="361" y="72" type="line"/>
      <point x="308" y="143"/>
      <point x="193" y="238"/>
    </contour>
    <contour>
      <point x="209" y="830" type="curve"/>
      <point x="177" y="833" type="line"/>
      <point x="158" y="658"/>
      <point x="118" y="427"/>
      <point x="67" y="281" type="curve"/>
      <point x="75" y="278"/>
      <point x="87" y="273"/>
      <point x="94" y="270" type="curve"/>
      <point x="145" y="423"/>
      <point x="186" y="650"/>
    </contour>
  </outline>
</glyph>
<glyph name="ety049_cid03337_H" format="1">
  <advance width="1000"/>
  <outline>
    <contour>
      <point x="112" y="345" type="curve"/>
      <point x="30" y="253" type="line"/>
      <point x="123" y="176"/>
      <point x="242" y="64"/>
      <point x="293" y="-12" type="curve"/>
      <point x="383" y="95" type="line"/>
      <point x="328" y="169"/>
      <point x="204" y="274"/>
    </contour>
    <contour>
      <point x="250" y="842" type="curve"/>
      <point x="122" y="854" type="line"/>
      <point x="108" y="652"/>
      <point x="71" y="382"/>
      <point x="30" y="252" type="curve"/>
      <point x="64" y="240"/>
      <point x="111" y="218"/>
      <point x="137" y="200" type="curve"/>
      <point x="183" y="346"/>
      <point x="226" y="629"/>
    </contour>
  </outline>
</glyph>
<glyph name="ety050_cid03339_H" format="1">
  <advance width="1000"/>
  <outline>
    <contour>
      <point x="109" y="342" type="curve"/>
      <point x="28" y="252" type="line"/>
      <point x="116" y="168"/>
      <point x="228" y="48"/>
      <point x="275" y="-32" type="curve"/>
      <point x="365" y="72" type="line"/>
      <point x="313" y="151"/>
      <point x="196" y="263"/>
    </contour>
    <contour>
      <point x="238" y="842" type="curve"/>
      <point x="116" y="854" type="line"/>
      <point x="103" y="652"/>
      <point x="68" y="382"/>
      <point x="29" y="252" type="curve"/>
      <point x="61" y="240"/>
      <point x="106" y="218"/>
      <point x="130" y="200" type="curve"/>
      <point x="175" y="346"/>
      <point x="215" y="629"/>
    </contour>
  </outline>
</glyph>
<glyph name="ety051_cid03341_H" format="1">
  <advance width="1000"/>
  <outline>
    <contour>
      <point x="105" y="382" type="curve"/>
      <point x="38" y="289" type="line"/>
      <point x="122" y="212"/>
      <point x="229" y="102"/>
      <point x="276" y="28" type="curve"/>
      <point x="350" y="135" type="line"/>
      <point x="301" y="207"/>
      <point x="189" y="310"/>
    </contour>
    <contour>
      <point x="240" y="826" type="curve"/>
      <point x="113" y="839" type="line"/>
      <point x="103" y="654"/>
      <point x="72" y="406"/>
      <point x="38" y="288" type="curve"/>
      <point x="71" y="275"/>
      <point x="117" y="252"/>
      <point x="143" y="233" type="curve"/>
      <point x="183" y="366"/>
      <point x="220" y="628"/>
    </contour>
  </outline>
</glyph>
<glyph name="ety052_cid03350_EL" format="1">
  <advance width="1000"/>
  <outline>
    <contour>
      <point x="100" y="303" type="curve"/>
      <point x="77" y="286" type="line"/>
      <point x="158" y="229"/>
      <point x="248" y="144"/>
      <point x="288" y="84" type="curve"/>
      <point x="313" y="104" type="line"/>
      <point x="272" y="164"/>
      <point x="182" y="247"/>
    </contour>
    <contour>
      <point x="216" y="835" type="curve"/>
      <point x="183" y="838" type="line"/>
      <point x="165" y="663"/>
      <point x="127" y="432"/>
      <point x="78" y="286" type="curve"/>
      <point x="85" y="283"/>
      <point x="98" y="278"/>
      <point x="105" y="275" type="curve"/>
      <point x="155" y="428"/>
      <point x="194" y="656"/>
    </contour>
  </outline>
</glyph>
<glyph name="ety053_cid03350_H" format="1">
  <advance width="1000"/>
  <outline>
    <contour>
      <point x="103" y="382" type="curve"/>
      <point x="38" y="289" type="line"/>
      <point x="124" y="207"/>
      <point x="235" y="89"/>
      <point x="283" y="10" type="curve"/>
      <point x="355" y="118" type="line"/>
      <point x="305" y="195"/>
      <point x="189" y="305"/>
    </contour>
    <contour>
      <point x="224" y="827" type="curve"/>
      <point x="109" y="839" type="line"/>
      <point x="99" y="655"/>
      <point x="70" y="409"/>
      <point x="36" y="288" type="curve"/>
      <point x="66" y="276"/>
      <point x="109" y="254"/>
      <point x="132" y="237" type="curve"/>
      <point x="170" y="371"/>
      <point x="205" y="631"/>
    </contour>
  </outline>
</glyph>
<glyph name="ety054_cid03354_EL" format="1">
  <advance width="1000"/>
  <outline>
    <contour>
      <point x="87" y="303" type="curve"/>
      <point x="64" y="286" type="line"/>
      <point x="142" y="233"/>
      <point x="229" y="156"/>
      <point x="268" y="100" type="curve"/>
      <point x="292" y="119" type="line"/>
      <point x="252" y="175"/>
      <point x="165" y="252"/>
    </contour>
    <contour>
      <point x="203" y="835" type="curve"/>
      <point x="171" y="838" type="line"/>
      <point x="152" y="663"/>
      <point x="114" y="432"/>
      <point x="65" y="286" type="curve"/>
      <point x="73" y="283"/>
      <point x="85" y="278"/>
      <point x="92" y="275" type="curve"/>
      <point x="142" y="428"/>
      <point x="182" y="656"/>
    </contour>
  </outline>
</glyph>
<glyph name="ety055_cid03354_H" format="1">
  <advance width="1000"/>
  <outline>
    <contour>
      <point x="102" y="382" type="curve"/>
      <point x="38" y="289" type="line"/>
      <point x="113" y="217"/>
      <point x="208" y="113"/>
      <point x="249" y="42" type="curve"/>
      <point x="319" y="150" type="line"/>
      <point x="276" y="217"/>
      <point x="176" y="314"/>
    </contour>
    <contour>
      <point x="220" y="827" type="curve"/>
      <point x="108" y="839" type="line"/>
      <point x="98" y="655"/>
      <point x="70" y="409"/>
      <point x="37" y="288" type="curve"/>
      <point x="66" y="276"/>
      <point x="108" y="254"/>
      <point x="130" y="237" type="curve"/>
      <point x="168" y="371"/>
      <point x="202" y="631"/>
    </contour>
  </outline>
</glyph>
<glyph name="ety056_cid03358_H" format="1">
  <advance width="1000"/>
  <outline>
    <contour>
      <point x="105" y="388" type="curve"/>
      <point x="40" y="289" type="line"/>
      <point x="138" y="203"/>
      <point x="265" y="79"/>
      <point x="319" y="-5" type="curve"/>
      <point x="392" y="110" type="line"/>
      <point x="336" y="191"/>
      <point x="203" y="306"/>
    </contour>
    <contour>
      <point x="242" y="827" type="curve"/>
      <point x="117" y="839" type="line"/>
      <point x="106" y="655"/>
      <point x="74" y="409"/>
      <point x="38" y="288" type="curve"/>
      <point x="71" y="276"/>
      <point x="117" y="254"/>
      <point x="142" y="237" type="curve"/>
      <point x="183" y="371"/>
      <point x="221" y="631"/>
    </contour>
  </outline>
</glyph>
<glyph name="ety057_cid03363_EL" format="1">
  <advance width="1000"/>
  <outline>
    <contour>
      <point x="98" y="303" type="curve"/>
      <point x="76" y="286" type="line"/>
      <point x="175" y="218"/>
      <point x="284" y="115"/>
      <point x="333" y="42" type="curve"/>
      <point x="358" y="61" type="line"/>
      <point x="307" y="134"/>
      <point x="197" y="235"/>
    </contour>
    <contour>
      <point x="210" y="835" type="curve"/>
      <point x="179" y="838" type="line"/>
      <point x="161" y="663"/>
      <point x="124" y="432"/>
      <point x="77" y="286" type="curve"/>
      <point x="84" y="283"/>
      <point x="96" y="278"/>
      <point x="102" y="275" type="curve"/>
      <point x="151" y="428"/>
      <point x="189" y="656"/>
    </contour>
  </outline>
</glyph>
<glyph name="ety058_cid03363_H" format="1">
  <advance width="1000"/>
  <outline>
    <contour>
      <point x="112" y="378" type="curve"/>
      <point x="39" y="289" type="line"/>
      <point x="124" y="200"/>
      <point x="230" y="76"/>
      <point x="275" y="-8" type="curve"/>
      <point x="356" y="96" type="line"/>
      <point x="308" y="177"/>
      <point x="196" y="294"/>
    </contour>
    <contour>
      <point x="234" y="827" type="curve"/>
      <point x="114" y="839" type="line"/>
      <point x="103" y="655"/>
      <point x="73" y="409"/>
      <point x="38" y="288" type="curve"/>
      <point x="70" y="276"/>
      <point x="114" y="254"/>
      <point x="138" y="237" type="curve"/>
      <point x="178" y="371"/>
      <point x="214" y="631"/>
    </contour>
  </outline>
</glyph>
<glyph name="ety059_cid03367_EL" format="1">
  <advance width="1000"/>
  <outline>
    <contour>
      <point x="99" y="303" type="curve"/>
      <point x="77" y="286" type="line"/>
      <point x="164" y="227"/>
      <point x="261" y="138"/>
      <point x="304" y="75" type="curve"/>
      <point x="329" y="94" type="line"/>
      <point x="283" y="157"/>
      <point x="186" y="245"/>
    </contour>
    <contour>
      <point x="214" y="835" type="curve"/>
      <point x="182" y="838" type="line"/>
      <point x="164" y="663"/>
      <point x="126" y="432"/>
      <point x="78" y="286" type="curve"/>
      <point x="84" y="283"/>
      <point x="97" y="278"/>
      <point x="104" y="275" type="curve"/>
      <point x="153" y="428"/>
      <point x="192" y="656"/>
    </contour>
  </outline>
</glyph>
<glyph name="ety060_cid03569_H" format="1">
  <advance width="1000"/>
  <outline>
    <contour>
      <point x="149" y="48" type="curve"/>
      <point x="314" y="48" type="line"/>
      <point x="360" y="94"/>
      <point x="428" y="175"/>
      <point x="472" y="248" type="curve"/>
      <point x="335" y="286" type="line"/>
      <point x="289" y="205"/>
      <point x="212" y="110"/>
    </contour>
    <contour>
      <point x="235" y="125" type="curve"/>
      <point x="151" y="48" type="line"/>
      <point x="382" y="17"/>
      <point x="669" y="-44"/>
      <point x="834" y="-95" type="curve"/>
      <point x="914" y="-12" type="line"/>
      <point x="739" y="37"/>
      <point x="458" y="96"/>
    </contour>
  </outline>
</glyph>
<glyph name="ety062_cid03677_H" format="1">
  <advance width="1000"/>
  <outline>
    <contour>
      <point x="715" y="301" type="curve"/>
      <point x="593" y="331" type="line"/>
      <point x="546" y="245"/>
      <point x="477" y="135"/>
      <point x="426" y="65" type="curve"/>
      <point x="559" y="49" type="line"/>
      <point x="603" y="112"/>
      <point x="666" y="215"/>
    </contour>
    <contour>
      <point x="501" y="154" type="curve"/>
      <point x="427" y="65" type="line"/>
      <point x="585" y="30"/>
      <point x="799" y="-40"/>
      <point x="904" y="-93" type="curve"/>
      <point x="985" y="10" type="line"/>
      <point x="869" y="62"/>
      <point x="652" y="126"/>
    </contour>
  </outline>
</glyph>
<glyph name="ety064_cid04306_H" format="1">
  <advance width="1000"/>
  <outline>
    <contour>
      <point x="343" y="313" type="curve"/>
      <point x="220" y="345" type="line"/>
      <point x="180" y="262"/>
      <point x="119" y="155"/>
      <point x="75" y="88" type="curve"/>
      <point x="190" y="59" type="line"/>
      <point x="234" y="126"/>
      <point x="294" y="225"/>
    </contour>
    <contour>
      <point x="142" y="179" type="curve"/>
      <point x="74" y="88" type="line"/>
      <point x="198" y="45"/>
      <point x="354" y="-25"/>
      <point x="443" y="-77" type="curve"/>
      <point x="511" y="24" type="line"/>
      <point x="417" y="72"/>
      <point x="266" y="139"/>
    </contour>
  </outline>
</glyph>
<glyph name="ety066_cid05506_EL" format="1">
  <advance width="1000"/>
  <outline>
    <contour>
      <point x="125" y="209" type="curve"/>
      <point x="103" y="189" type="line"/>
      <point x="209" y="144"/>
      <point x="334" y="67"/>
      <point x="397" y="12" type="curve"/>
      <point x="420" y="33" type="line"/>
      <point x="356" y="87"/>
      <point x="230" y="164"/>
    </contour>
    <contour>
      <point x="103" y="191" type="curve"/>
      <point x="137" y="191" type="line"/>
      <point x="182" y="263"/>
      <point x="246" y="389"/>
      <point x="281" y="487" type="curve"/>
      <point x="251" y="493" type="line"/>
      <point x="218" y="396"/>
      <point x="154" y="269"/>
    </contour>
  </outline>
</glyph>
<glyph name="ety067_cid05850_EL" format="1">
  <advance width="1000"/>
  <outline>
    <contour>
      <point x="597" y="364" type="curve"/>
      <point x="570" y="372" type="line"/>
      <point x="525" y="298"/>
      <point x="459" y="199"/>
      <point x="412" y="137" type="curve"/>
      <point x="440" y="131" type="line"/>
      <point x="485" y="191"/>
      <point x="551" y="288"/>
    </contour>
    <contour>
      <point x="436" y="156" type="curve"/>
      <point x="412" y="136" type="line"/>
      <point x="594" y="68"/>
      <point x="765" y="-11"/>
      <point x="869" y="-75" type="curve"/>
      <point x="898" y="-55" type="line"/>
      <point x="787" y="11"/>
      <point x="611" y="91"/>
    </contour>
  </outline>
</glyph>
<glyph name="ety068_cid06059_EL" format="1">
  <advance width="1000"/>
  <outline>
    <contour>
      <point x="607" y="312" type="curve"/>
      <point x="577" y="320" type="line"/>
      <point x="534" y="243"/>
      <point x="472" y="140"/>
      <point x="426" y="77" type="curve"/>
      <point x="459" y="73" type="line"/>
      <point x="501" y="134"/>
      <point x="563" y="234"/>
    </contour>
    <contour>
      <point x="446" y="97" type="curve"/>
      <point x="426" y="76" type="line"/>
      <point x="589" y="42"/>
      <point x="794" y="-20"/>
      <point x="899" y="-70" type="curve"/>
      <point x="920" y="-46" type="line"/>
      <point x="809" y="6"/>
      <point x="607" y="65"/>
    </contour>
  </outline>
</glyph>
<glyph name="ety069_cid06156_EL" format="1">
  <advance width="1000"/>
  <outline>
    <contour>
      <point x="655" y="312" type="curve"/>
      <point x="625" y="320" type="line"/>
      <point x="582" y="243"/>
      <point x="520" y="140"/>
      <point x="474" y="77" type="curve"/>
      <point x="507" y="73" type="line"/>
      <point x="549" y="134"/>
      <point x="611" y="234"/>
    </contour>
    <contour>
      <point x="494" y="96" type="curve"/>
      <point x="474" y="76" type="line"/>
      <point x="624" y="42"/>
      <point x="812" y="-18"/>
      <point x="909" y="-65" type="curve"/>
      <point x="930" y="-42" type="line"/>
      <point x="827" y="8"/>
      <point x="641" y="65"/>
    </contour>
  </outline>
</glyph>
<glyph name="ety070_cid07132_H" format="1">
  <advance width="1000"/>
  <outline>
    <contour>
      <point x="282" y="640" type="curve"/>
      <point x="160" y="657" type="line"/>
      <point x="130" y="515"/>
      <point x="82" y="334"/>
      <point x="45" y="221" type="curve"/>
      <point x="156" y="194" type="line"/>
      <point x="195" y="312"/>
      <point x="245" y="490"/>
    </contour>
    <contour>
      <point x="119" y="296" type="curve"/>
      <point x="45" y="222" type="line"/>
      <point x="130" y="159"/>
      <point x="238" y="66"/>
      <point x="297" y="6" type="curve"/>
      <point x="372" y="91" type="line"/>
      <point x="313" y="147"/>
      <point x="205" y="236"/>
    </contour>
  </outline>
</glyph>
<glyph name="ety071_cid07262_EL" format="1">
  <advance width="1000"/>
  <outline>
    <contour>
      <point x="500" y="345" type="curve"/>
      <point x="469" y="348" type="line"/>
      <point x="451" y="271"/>
      <point x="421" y="171"/>
      <point x="384" y="105" type="curve"/>
      <point x="391" y="102"/>
      <point x="403" y="97"/>
      <point x="410" y="94" type="curve"/>
      <point x="446" y="163"/>
      <point x="478" y="263"/>
    </contour>
    <contour>
      <point x="402" y="121" type="curve"/>
      <point x="383" y="105" type="line"/>
      <point x="446" y="68"/>
      <point x="522" y="12"/>
      <point x="560" y="-25" type="curve"/>
      <point x="578" y="-7" type="line"/>
      <point x="540" y="30"/>
      <point x="465" y="84"/>
    </contour>
  </outline>
</glyph>
<glyph name="ety072_cid07262_H" format="1">
  <advance width="1000"/>
  <outline>
    <contour>
      <point x="522" y="307" type="curve"/>
      <point x="425" y="320" type="line"/>
      <point x="412" y="238"/>
      <point x="386" y="135"/>
      <point x="356" y="80" type="curve"/>
      <point x="378" y="69"/>
      <point x="413" y="49"/>
      <point x="431" y="35" type="curve"/>
      <point x="467" y="99"/>
      <point x="500" y="214"/>
    </contour>
    <contour>
      <point x="420" y="132" type="curve"/>
      <point x="357" y="79" type="line"/>
      <point x="426" y="41"/>
      <point x="505" y="-18"/>
      <point x="540" y="-61" type="curve"/>
      <point x="609" y="-2" type="line"/>
      <point x="570" y="41"/>
      <point x="489" y="96"/>
    </contour>
  </outline>
</glyph>
<glyph name="ety073_cid07782_EL" format="1">
  <advance width="1000"/>
  <outline>
    <contour>
      <point x="670" y="312" type="curve"/>
      <point x="640" y="320" type="line"/>
      <point x="597" y="243"/>
      <point x="534" y="140"/>
      <point x="488" y="77" type="curve"/>
      <point x="522" y="73" type="line"/>
      <point x="564" y="134"/>
      <point x="625" y="234"/>
    </contour>
    <contour>
      <point x="509" y="96" type="curve"/>
      <point x="488" y="76" type="line"/>
      <point x="635" y="41"/>
      <point x="819" y="-21"/>
      <point x="913" y="-69" type="curve"/>
      <point x="934" y="-46" type="line"/>
      <point x="834" y="4"/>
      <point x="653" y="63"/>
    </contour>
  </outline>
</glyph>
<glyph name="ety074_cid08193_H" format="1">
  <advance width="1000"/>
  <outline>
    <contour>
      <point x="363" y="313" type="curve"/>
      <point x="240" y="345" type="line"/>
      <point x="200" y="262"/>
      <point x="139" y="155"/>
      <point x="95" y="88" type="curve"/>
      <point x="210" y="59" type="line"/>
      <point x="254" y="126"/>
      <point x="314" y="225"/>
    </contour>
    <contour>
      <point x="163" y="181" type="curve"/>
      <point x="94" y="88" type="line"/>
      <point x="236" y="43"/>
      <point x="413" y="-31"/>
      <point x="515" y="-88" type="curve"/>
      <point x="583" y="16" type="line"/>
      <point x="476" y="67"/>
      <point x="303" y="139"/>
    </contour>
  </outline>
</glyph>
<glyph name="ety075_cid08445_EL" format="1">
  <advance width="1000"/>
  <outline>
    <contour>
      <point x="483" y="195" type="curve"/>
      <point x="461" y="175" type="line"/>
      <point x="619" y="116"/>
      <point x="803" y="11"/>
      <point x="897" y="-66" type="curve"/>
      <point x="918" y="-43" type="line"/>
      <point x="823" y="32"/>
      <point x="636" y="136"/>
    </contour>
    <contour>
      <point x="459" y="175" type="curve"/>
      <point x="492" y="175" type="line"/>
      <point x="540" y="252"/>
      <point x="610" y="389"/>
      <point x="647" y="496" type="curve"/>
      <point x="618" y="502" type="line"/>
      <point x="581" y="397"/>
      <point x="513" y="258"/>
    </contour>
  </outline>
</glyph>
<glyph name="ety076_cid08950_EL" format="1">
  <advance width="1000"/>
  <outline>
    <contour>
      <point x="648" y="324" type="curve"/>
      <point x="618" y="331" type="line"/>
      <point x="578" y="259"/>
      <point x="523" y="162"/>
      <point x="481" y="101" type="curve"/>
      <point x="513" y="95" type="line"/>
      <point x="552" y="155"/>
      <point x="609" y="249"/>
    </contour>
    <contour>
      <point x="502" y="123" type="curve"/>
      <point x="481" y="100" type="line"/>
      <point x="631" y="61"/>
      <point x="815" y="-15"/>
      <point x="910" y="-69" type="curve"/>
      <point x="929" y="-44" type="line"/>
      <point x="833" y="9"/>
      <point x="648" y="83"/>
    </contour>
  </outline>
</glyph>
<glyph name="ety077_cid09176_EL" format="1">
  <advance width="1000"/>
  <outline>
    <contour>
      <point x="665" y="324" type="curve"/>
      <point x="634" y="331" type="line"/>
      <point x="595" y="259"/>
      <point x="539" y="162"/>
      <point x="498" y="101" type="curve"/>
      <point x="529" y="95" type="line"/>
      <point x="569" y="155"/>
      <point x="625" y="249"/>
    </contour>
    <contour>
      <point x="519" y="123" type="curve"/>
      <point x="498" y="100" type="line"/>
      <point x="648" y="61"/>
      <point x="831" y="-15"/>
      <point x="926" y="-69" type="curve"/>
      <point x="946" y="-44" type="line"/>
      <point x="850" y="9"/>
      <point x="665" y="83"/>
    </contour>
  </outline>
</glyph>
<glyph name="ety078_cid09270_EL" format="1">
  <advance width="1000"/>
  <outline>
    <contour>
      <point x="146" y="185" type="curve"/>
      <point x="126" y="164" type="line"/>
      <point x="235" y="126"/>
      <point x="371" y="60"/>
      <point x="442" y="16" type="curve"/>
      <point x="462" y="40" type="line"/>
      <point x="391" y="82"/>
      <point x="253" y="147"/>
    </contour>
    <contour>
      <point x="128" y="164" type="curve"/>
      <point x="163" y="164" type="line"/>
      <point x="202" y="227"/>
      <point x="260" y="336"/>
      <point x="291" y="423" type="curve"/>
      <point x="261" y="428" type="line"/>
      <point x="231" y="343"/>
      <point x="174" y="232"/>
    </contour>
  </outline>
</glyph>
<glyph name="ety082_cid14279_H" format="1">
  <advance width="1000"/>
  <outline>
    <contour>
      <point x="122" y="412" type="curve"/>
      <point x="38" y="310" type="line"/>
      <point x="147" y="219"/>
      <point x="288" y="91"/>
      <point x="347" y="4" type="curve"/>
      <point x="440" y="123" type="line"/>
      <point x="378" y="207"/>
      <point x="231" y="327"/>
    </contour>
    <contour>
      <point x="287" y="838" type="curve"/>
      <point x="141" y="852" type="line"/>
      <point x="125" y="669"/>
      <point x="84" y="425"/>
      <point x="39" y="310" type="curve"/>
      <point x="77" y="297"/>
      <point x="130" y="272"/>
      <point x="159" y="253" type="curve"/>
      <point x="210" y="383"/>
      <point x="258" y="641"/>
    </contour>
  </outline>
</glyph>
<glyph name="ety083_cid14346_H" format="1">
  <advance width="1000"/>
  <outline>
    <contour>
      <point x="113" y="412" type="curve"/>
      <point x="38" y="309" type="line"/>
      <point x="140" y="221"/>
      <point x="272" y="95"/>
      <point x="328" y="8" type="curve"/>
      <point x="412" y="129" type="line"/>
      <point x="353" y="212"/>
      <point x="215" y="330"/>
    </contour>
    <contour>
      <point x="271" y="838" type="curve"/>
      <point x="134" y="852" type="line"/>
      <point x="119" y="669"/>
      <point x="80" y="425"/>
      <point x="38" y="310" type="curve"/>
      <point x="74" y="297"/>
      <point x="123" y="272"/>
      <point x="151" y="253" type="curve"/>
      <point x="199" y="383"/>
      <point x="244" y="641"/>
    </contour>
  </outline>
</glyph>
<glyph name="ety084_cid14375_H" format="1">
  <advance width="1000"/>
  <outline>
    <contour>
      <point x="121" y="408" type="curve"/>
      <point x="36" y="310" type="line"/>
      <point x="136" y="208"/>
      <point x="262" y="67"/>
      <point x="313" y="-28" type="curve"/>
      <point x="408" y="87" type="line"/>
      <point x="354" y="180"/>
      <point x="221" y="312"/>
    </contour>
    <contour>
      <point x="269" y="837" type="curve"/>
      <point x="133" y="852" type="line"/>
      <point x="117" y="667"/>
      <point x="78" y="423"/>
      <point x="35" y="310" type="curve"/>
      <point x="71" y="296"/>
      <point x="120" y="271"/>
      <point x="147" y="251" type="curve"/>
      <point x="195" y="379"/>
      <point x="242" y="638"/>
    </contour>
  </outline>
</glyph>
<glyph name="ety085_cid14414_H" format="1">
  <advance width="1000"/>
  <outline>
    <contour>
      <point x="123" y="412" type="curve"/>
      <point x="39" y="310" type="line"/>
      <point x="145" y="222"/>
      <point x="281" y="98"/>
      <point x="338" y="13" type="curve"/>
      <point x="432" y="132" type="line"/>
      <point x="372" y="214"/>
      <point x="228" y="330"/>
    </contour>
    <contour>
      <point x="286" y="836" type="curve"/>
      <point x="141" y="852" type="line"/>
      <point x="124" y="665"/>
      <point x="82" y="420"/>
      <point x="38" y="310" type="curve"/>
      <point x="76" y="295"/>
      <point x="128" y="268"/>
      <point x="157" y="246" type="curve"/>
      <point x="207" y="372"/>
      <point x="257" y="633"/>
    </contour>
  </outline>
</glyph>
<glyph name="ety087_cid14441_EL" format="1">
  <advance width="1000"/>
  <outline>
    <contour>
      <point x="100" y="303" type="curve"/>
      <point x="77" y="286" type="line"/>
      <point x="180" y="218"/>
      <point x="293" y="115"/>
      <point x="344" y="42" type="curve"/>
      <point x="370" y="61" type="line"/>
      <point x="317" y="134"/>
      <point x="203" y="235"/>
    </contour>
    <contour>
      <point x="216" y="835" type="curve"/>
      <point x="183" y="838" type="line"/>
      <point x="165" y="663"/>
      <point x="127" y="432"/>
      <point x="78" y="286" type="curve"/>
      <point x="85" y="283"/>
      <point x="98" y="278"/>
      <point x="105" y="275" type="curve"/>
      <point x="155" y="428"/>
      <point x="194" y="656"/>
    </contour>
  </outline>
</glyph>
<glyph name="ety088_cid14441_H" format="1">
  <advance width="1000"/>
  <outline>
    <contour>
      <point x="108" y="388" type="curve"/>
      <point x="40" y="289" type="line"/>
      <point x="137" y="207"/>
      <point x="263" y="90"/>
      <point x="317" y="10" type="curve"/>
      <point x="392" y="125" type="line"/>
      <point x="336" y="201"/>
      <point x="205" y="311"/>
    </contour>
    <contour>
      <point x="251" y="827" type="curve"/>
      <point x="121" y="839" type="line"/>
      <point x="110" y="655"/>
      <point x="77" y="409"/>
      <point x="39" y="288" type="curve"/>
      <point x="73" y="276"/>
      <point x="121" y="254"/>
      <point x="147" y="237" type="curve"/>
      <point x="190" y="371"/>
      <point x="230" y="631"/>
    </contour>
  </outline>
</glyph>
<glyph name="ety089_cid14527_H" format="1">
  <advance width="1000"/>
  <outline>
    <contour>
      <point x="117" y="342" type="curve"/>
      <point x="30" y="253" type="line"/>
      <point x="118" y="175"/>
      <point x="230" y="65"/>
      <point x="277" y="-10" type="curve"/>
      <point x="373" y="93" type="line"/>
      <point x="322" y="167"/>
      <point x="205" y="270"/>
    </contour>
    <contour>
      <point x="256" y="841" type="curve"/>
      <point x="124" y="854" type="line"/>
      <point x="109" y="651"/>
      <point x="71" y="380"/>
      <point x="29" y="253" type="curve"/>
      <point x="65" y="241"/>
      <point x="113" y="218"/>
      <point x="139" y="199" type="curve"/>
      <point x="186" y="341"/>
      <point x="231" y="626"/>
    </contour>
  </outline>
</glyph>
<glyph name="ety090_cid14562_H" format="1">
  <advance width="1000"/>
  <outline>
    <contour>
      <point x="116" y="343" type="curve"/>
      <point x="29" y="253" type="line"/>
      <point x="125" y="167"/>
      <point x="247" y="45"/>
      <point x="299" y="-37" type="curve"/>
      <point x="395" y="67" type="line"/>
      <point x="338" y="148"/>
      <point x="211" y="263"/>
    </contour>
    <contour>
      <point x="253" y="842" type="curve"/>
      <point x="123" y="854" type="line"/>
      <point x="108" y="651"/>
      <point x="70" y="381"/>
      <point x="28" y="253" type="curve"/>
      <point x="63" y="241"/>
      <point x="110" y="218"/>
      <point x="137" y="200" type="curve"/>
      <point x="184" y="343"/>
      <point x="228" y="626"/>
    </contour>
  </outline>
</glyph>
<glyph name="ety091_cid14578_H" format="1">
  <advance width="1000"/>
  <outline>
    <contour>
      <point x="111" y="351" type="curve"/>
      <point x="30" y="253" type="line"/>
      <point x="127" y="168"/>
      <point x="251" y="48"/>
      <point x="303" y="-34" type="curve"/>
      <point x="393" y="79" type="line"/>
      <point x="337" y="159"/>
      <point x="207" y="272"/>
    </contour>
    <contour>
      <point x="259" y="842" type="curve"/>
      <point x="126" y="854" type="line"/>
      <point x="112" y="652"/>
      <point x="73" y="382"/>
      <point x="30" y="252" type="curve"/>
      <point x="66" y="240"/>
      <point x="115" y="218"/>
      <point x="142" y="200" type="curve"/>
      <point x="190" y="346"/>
      <point x="234" y="629"/>
    </contour>
  </outline>
</glyph>
<glyph name="ety092_cid14594_EL" format="1">
  <advance width="1000"/>
  <outline>
    <contour>
      <point x="107" y="301" type="curve"/>
      <point x="85" y="280" type="line"/>
      <point x="205" y="212"/>
      <point x="335" y="108"/>
      <point x="394" y="33" type="curve"/>
      <point x="418" y="57" type="line"/>
      <point x="360" y="131"/>
      <point x="229" y="232"/>
    </contour>
    <contour>
      <point x="240" y="829" type="curve"/>
      <point x="206" y="832" type="line"/>
      <point x="184" y="656"/>
      <point x="140" y="426"/>
      <point x="84" y="280" type="curve"/>
      <point x="92" y="278"/>
      <point x="106" y="272"/>
      <point x="113" y="269" type="curve"/>
      <point x="170" y="422"/>
      <point x="215" y="648"/>
    </contour>
  </outline>
</glyph>
<glyph name="ety093_cid14604_H" format="1">
  <advance width="1000"/>
  <outline>
    <contour>
      <point x="106" y="351" type="curve"/>
      <point x="29" y="253" type="line"/>
      <point x="120" y="190"/>
      <point x="240" y="95"/>
      <point x="293" y="30" type="curve"/>
      <point x="377" y="142" type="line"/>
      <point x="320" y="206"/>
      <point x="195" y="293"/>
    </contour>
    <contour>
      <point x="251" y="842" type="curve"/>
      <point x="122" y="854" type="line"/>
      <point x="108" y="652"/>
      <point x="71" y="382"/>
      <point x="29" y="252" type="curve"/>
      <point x="64" y="240"/>
      <point x="111" y="218"/>
      <point x="137" y="200" type="curve"/>
      <point x="184" y="346"/>
      <point x="227" y="629"/>
    </contour>
  </outline>
</glyph>
<glyph name="ety094_cid14617_H" format="1">
  <advance width="1000"/>
  <outline>
    <contour>
      <point x="116" y="346" type="curve"/>
      <point x="32" y="253" type="line"/>
      <point x="125" y="181"/>
      <point x="243" y="77"/>
      <point x="295" y="6" type="curve"/>
      <point x="387" y="113" type="line"/>
      <point x="332" y="183"/>
      <point x="208" y="280"/>
    </contour>
    <contour>
      <point x="261" y="842" type="curve"/>
      <point x="128" y="854" type="line"/>
      <point x="114" y="652"/>
      <point x="75" y="382"/>
      <point x="32" y="252" type="curve"/>
      <point x="68" y="240"/>
      <point x="117" y="218"/>
      <point x="144" y="200" type="curve"/>
      <point x="192" y="346"/>
      <point x="236" y="629"/>
    </contour>
  </outline>
</glyph>
<glyph name="ety095_cid14620_H" format="1">
  <advance width="1000"/>
  <outline>
    <contour>
      <point x="127" y="333" type="curve"/>
      <point x="30" y="253" type="line"/>
      <point x="114" y="179"/>
      <point x="220" y="74"/>
      <point x="264" y="3" type="curve"/>
      <point x="370" y="96" type="line"/>
      <point x="321" y="166"/>
      <point x="211" y="265"/>
    </contour>
    <contour>
      <point x="259" y="842" type="curve"/>
      <point x="126" y="854" type="line"/>
      <point x="112" y="652"/>
      <point x="73" y="382"/>
      <point x="30" y="252" type="curve"/>
      <point x="66" y="240"/>
      <point x="115" y="218"/>
      <point x="142" y="200" type="curve"/>
      <point x="190" y="346"/>
      <point x="234" y="629"/>
    </contour>
  </outline>
</glyph>
<glyph name="ety096_cid14623_H" format="1">
  <advance width="1000"/>
  <outline>
    <contour>
      <point x="109" y="342" type="curve"/>
      <point x="28" y="252" type="line"/>
      <point x="118" y="166"/>
      <point x="231" y="44"/>
      <point x="279" y="-38" type="curve"/>
      <point x="368" y="66" type="line"/>
      <point x="316" y="147"/>
      <point x="197" y="262"/>
    </contour>
    <contour>
      <point x="237" y="842" type="curve"/>
      <point x="116" y="854" type="line"/>
      <point x="103" y="652"/>
      <point x="68" y="382"/>
      <point x="29" y="252" type="curve"/>
      <point x="61" y="240"/>
      <point x="106" y="218"/>
      <point x="130" y="200" type="curve"/>
      <point x="174" y="346"/>
      <point x="215" y="629"/>
    </contour>
  </outline>
</glyph>
<glyph name="ety098_cid14642_H" format="1">
  <advance width="1000"/>
  <outline>
    <contour>
      <point x="123" y="413" type="curve"/>
      <point x="42" y="311" type="line"/>
      <point x="147" y="220"/>
      <point x="283" y="92"/>
      <point x="340" y="5" type="curve"/>
      <point x="430" y="124" type="line"/>
      <point x="370" y="208"/>
      <point x="228" y="328"/>
    </contour>
    <contour>
      <point x="278" y="838" type="curve"/>
      <point x="137" y="852" type="line"/>
      <point x="121" y="669"/>
      <point x="82" y="425"/>
      <point x="39" y="310" type="curve"/>
      <point x="75" y="297"/>
      <point x="126" y="272"/>
      <point x="154" y="253" type="curve"/>
      <point x="203" y="383"/>
      <point x="250" y="641"/>
    </contour>
  </outline>
</glyph>
<glyph name="ety100_cid14673_H" format="1">
  <advance width="1000"/>
  <outline>
    <contour>
      <point x="113" y="348" type="curve"/>
      <point x="30" y="253" type="line"/>
      <point x="134" y="176"/>
      <point x="268" y="63"/>
      <point x="327" y="-15" type="curve"/>
      <point x="418" y="95" type="line"/>
      <point x="355" y="171"/>
      <point x="215" y="276"/>
    </contour>
    <contour>
      <point x="259" y="842" type="curve"/>
      <point x="126" y="854" type="line"/>
      <point x="112" y="652"/>
      <point x="73" y="382"/>
      <point x="30" y="252" type="curve"/>
      <point x="66" y="240"/>
      <point x="115" y="218"/>
      <point x="142" y="200" type="curve"/>
      <point x="190" y="346"/>
      <point x="234" y="629"/>
    </contour>
  </outline>
</glyph>
<glyph name="ety101_cid14677_H" format="1">
  <advance width="1000"/>
  <outline>
    <contour>
      <point x="115" y="343" type="curve"/>
      <point x="30" y="253" type="line"/>
      <point x="125" y="167"/>
      <point x="245" y="45"/>
      <point x="296" y="-37" type="curve"/>
      <point x="391" y="67" type="line"/>
      <point x="335" y="148"/>
      <point x="209" y="263"/>
    </contour>
    <contour>
      <point x="250" y="842" type="curve"/>
      <point x="122" y="854" type="line"/>
      <point x="108" y="652"/>
      <point x="71" y="382"/>
      <point x="30" y="252" type="curve"/>
      <point x="64" y="240"/>
      <point x="111" y="218"/>
      <point x="137" y="200" type="curve"/>
      <point x="184" y="346"/>
      <point x="227" y="629"/>
    </contour>
  </outline>
</glyph>
<glyph name="ety102_cid14680_H" format="1">
  <advance width="1000"/>
  <outline>
    <contour>
      <point x="116" y="343" type="curve"/>
      <point x="29" y="253" type="line"/>
      <point x="123" y="170"/>
      <point x="241" y="52"/>
      <point x="291" y="-28" type="curve"/>
      <point x="387" y="76" type="line"/>
      <point x="332" y="154"/>
      <point x="208" y="265"/>
    </contour>
    <contour>
      <point x="253" y="842" type="curve"/>
      <point x="123" y="854" type="line"/>
      <point x="109" y="652"/>
      <point x="71" y="382"/>
      <point x="29" y="252" type="curve"/>
      <point x="64" y="240"/>
      <point x="112" y="218"/>
      <point x="138" y="200" type="curve"/>
      <point x="186" y="346"/>
      <point x="229" y="629"/>
    </contour>
  </outline>
</glyph>
<glyph name="ety103_cid14682_H" format="1">
  <advance width="1000"/>
  <outline>
    <contour>
      <point x="109" y="342" type="curve"/>
      <point x="29" y="252" type="line"/>
      <point x="129" y="171"/>
      <point x="257" y="54"/>
      <point x="313" y="-26" type="curve"/>
      <point x="401" y="79" type="line"/>
      <point x="342" y="157"/>
      <point x="208" y="267"/>
    </contour>
    <contour>
      <point x="255" y="842" type="curve"/>
      <point x="123" y="854" type="line"/>
      <point x="109" y="652"/>
      <point x="71" y="381"/>
      <point x="30" y="252" type="curve"/>
      <point x="65" y="240"/>
      <point x="113" y="217"/>
      <point x="140" y="199" type="curve"/>
      <point x="187" y="344"/>
      <point x="231" y="628"/>
    </contour>
  </outline>
</glyph>
<glyph name="ety104_cid14689_EL" format="1">
  <advance width="1000"/>
  <outline>
    <contour>
      <point x="100" y="300" type="curve"/>
      <point x="79" y="281" type="line"/>
      <point x="187" y="210"/>
      <point x="305" y="102"/>
      <point x="357" y="23" type="curve"/>
      <point x="380" y="43" type="line"/>
      <point x="328" y="122"/>
      <point x="209" y="229"/>
    </contour>
    <contour>
      <point x="219" y="830" type="curve"/>
      <point x="186" y="833" type="line"/>
      <point x="168" y="658"/>
      <point x="129" y="427"/>
      <point x="78" y="281" type="curve"/>
      <point x="85" y="278"/>
      <point x="98" y="273"/>
      <point x="105" y="270" type="curve"/>
      <point x="156" y="423"/>
      <point x="196" y="650"/>
    </contour>
  </outline>
</glyph>
<glyph name="ety105_cid14689_H" format="1">
  <advance width="1000"/>
  <outline>
    <contour>
      <point x="107" y="343" type="curve"/>
      <point x="28" y="253" type="line"/>
      <point x="116" y="167"/>
      <point x="227" y="45"/>
      <point x="275" y="-37" type="curve"/>
      <point x="362" y="67" type="line"/>
      <point x="311" y="148"/>
      <point x="194" y="263"/>
    </contour>
    <contour>
      <point x="233" y="842" type="curve"/>
      <point x="114" y="854" type="line"/>
      <point x="101" y="652"/>
      <point x="67" y="382"/>
      <point x="29" y="252" type="curve"/>
      <point x="60" y="240"/>
      <point x="104" y="218"/>
      <point x="128" y="200" type="curve"/>
      <point x="171" y="346"/>
      <point x="211" y="629"/>
    </contour>
  </outline>
</glyph>
<glyph name="ety106_cid14701_EL" format="1">
  <advance width="1000"/>
  <outline>
    <contour>
      <point x="98" y="301" type="curve"/>
      <point x="79" y="280" type="line"/>
      <point x="182" y="213"/>
      <point x="294" y="110"/>
      <point x="345" y="36" type="curve"/>
      <point x="366" y="59" type="line"/>
      <point x="316" y="132"/>
      <point x="202" y="233"/>
    </contour>
    <contour>
      <point x="217" y="829" type="curve"/>
      <point x="185" y="832" type="line"/>
      <point x="167" y="655"/>
      <point x="129" y="425"/>
      <point x="80" y="280" type="curve"/>
      <point x="87" y="278"/>
      <point x="99" y="272"/>
      <point x="105" y="268" type="curve"/>
      <point x="155" y="421"/>
      <point x="195" y="648"/>
    </contour>
  </outline>
</glyph>
<glyph name="ety107_cid14701_H" format="1">
  <advance width="1000"/>
  <outline>
    <contour>
      <point x="111" y="411" type="curve"/>
      <point x="35" y="310" type="line"/>
      <point x="129" y="216"/>
      <point x="249" y="83"/>
      <point x="299" y="-7" type="curve"/>
      <point x="384" y="111" type="line"/>
      <point x="331" y="198"/>
      <point x="205" y="322"/>
    </contour>
    <contour>
      <point x="254" y="838" type="curve"/>
      <point x="126" y="852" type="line"/>
      <point x="112" y="669"/>
      <point x="76" y="425"/>
      <point x="37" y="310" type="curve"/>
      <point x="70" y="297"/>
      <point x="116" y="272"/>
      <point x="141" y="253" type="curve"/>
      <point x="186" y="383"/>
      <point x="229" y="641"/>
    </contour>
  </outline>
</glyph>
<glyph name="ety108_cid14717_H" format="1">
  <advance width="1000"/>
  <outline>
    <contour>
      <point x="119" y="330" type="curve"/>
      <point x="30" y="252" type="line"/>
      <point x="112" y="167"/>
      <point x="211" y="49"/>
      <point x="252" y="-29" type="curve"/>
      <point x="349" y="61" type="line"/>
      <point x="305" y="139"/>
      <point x="200" y="250"/>
    </contour>
    <contour>
      <point x="224" y="838" type="curve"/>
      <point x="106" y="849" type="line"/>
      <point x="96" y="652"/>
      <point x="65" y="383"/>
      <point x="30" y="253" type="curve"/>
      <point x="61" y="242"/>
      <point x="105" y="221"/>
      <point x="129" y="205" type="curve"/>
      <point x="169" y="350"/>
      <point x="205" y="630"/>
    </contour>
  </outline>
</glyph>
<glyph name="ety109_cid14732_H" format="1">
  <advance width="1000"/>
  <outline>
    <contour>
      <point x="118" y="340" type="curve"/>
      <point x="30" y="253" type="line"/>
      <point x="122" y="165"/>
      <point x="237" y="40"/>
      <point x="285" y="-43" type="curve"/>
      <point x="383" y="58" type="line"/>
      <point x="330" y="141"/>
      <point x="210" y="258"/>
    </contour>
    <contour>
      <point x="253" y="842" type="curve"/>
      <point x="124" y="854" type="line"/>
      <point x="109" y="651"/>
      <point x="71" y="381"/>
      <point x="29" y="253" type="curve"/>
      <point x="64" y="241"/>
      <point x="111" y="218"/>
      <point x="137" y="200" type="curve"/>
      <point x="184" y="343"/>
      <point x="228" y="627"/>
    </contour>
  </outline>
</glyph>
<glyph name="ety110_cid14755_H" format="1">
  <advance width="1000"/>
  <outline>
    <contour>
      <point x="116" y="412" type="curve"/>
      <point x="37" y="310" type="line"/>
      <point x="140" y="219"/>
      <point x="273" y="91"/>
      <point x="329" y="4" type="curve"/>
      <point x="417" y="123" type="line"/>
      <point x="359" y="207"/>
      <point x="219" y="327"/>
    </contour>
    <contour>
      <point x="272" y="837" type="curve"/>
      <point x="134" y="852" type="line"/>
      <point x="118" y="666"/>
      <point x="79" y="423"/>
      <point x="36" y="310" type="curve"/>
      <point x="72" y="296"/>
      <point x="122" y="270"/>
      <point x="149" y="250" type="curve"/>
      <point x="198" y="378"/>
      <point x="244" y="637"/>
    </contour>
  </outline>
</glyph>
<glyph name="ety111_cid14758_H" format="1">
  <advance width="1000"/>
  <outline>
    <contour>
      <point x="113" y="348" type="curve"/>
      <point x="30" y="253" type="line"/>
      <point x="124" y="183"/>
      <point x="246" y="81"/>
      <point x="298" y="10" type="curve"/>
      <point x="389" y="119" type="line"/>
      <point x="332" y="188"/>
      <point x="205" y="283"/>
    </contour>
    <contour>
      <point x="259" y="842" type="curve"/>
      <point x="126" y="854" type="line"/>
      <point x="112" y="652"/>
      <point x="73" y="382"/>
      <point x="30" y="252" type="curve"/>
      <point x="66" y="240"/>
      <point x="115" y="218"/>
      <point x="142" y="200" type="curve"/>
      <point x="190" y="346"/>
      <point x="234" y="629"/>
    </contour>
  </outline>
</glyph>
<glyph name="ety112_cid14760_EL" format="1">
  <advance width="1000"/>
  <outline>
    <contour>
      <point x="109" y="300" type="curve"/>
      <point x="86" y="281" type="line"/>
      <point x="196" y="210"/>
      <point x="315" y="102"/>
      <point x="368" y="23" type="curve"/>
      <point x="391" y="43" type="line"/>
      <point x="338" y="122"/>
      <point x="219" y="229"/>
    </contour>
    <contour>
      <point x="228" y="830" type="curve"/>
      <point x="195" y="833" type="line"/>
      <point x="177" y="658"/>
      <point x="136" y="427"/>
      <point x="85" y="281" type="curve"/>
      <point x="93" y="278"/>
      <point x="106" y="273"/>
      <point x="113" y="270" type="curve"/>
      <point x="164" y="423"/>
      <point x="205" y="650"/>
    </contour>
  </outline>
</glyph>
<glyph name="ety113_cid14760_H" format="1">
  <advance width="1000"/>
  <outline>
    <contour>
      <point x="116" y="343" type="curve"/>
      <point x="30" y="253" type="line"/>
      <point x="126" y="167"/>
      <point x="246" y="45"/>
      <point x="298" y="-37" type="curve"/>
      <point x="393" y="67" type="line"/>
      <point x="337" y="148"/>
      <point x="210" y="263"/>
    </contour>
    <contour>
      <point x="252" y="842" type="curve"/>
      <point x="123" y="854" type="line"/>
      <point x="109" y="652"/>
      <point x="72" y="382"/>
      <point x="30" y="252" type="curve"/>
      <point x="65" y="240"/>
      <point x="112" y="218"/>
      <point x="138" y="200" type="curve"/>
      <point x="185" y="346"/>
      <point x="228" y="629"/>
    </contour>
  </outline>
</glyph>
<glyph name="ety114_cid14783_H" format="1">
  <advance width="1000"/>
  <outline>
    <contour>
      <point x="114" y="407" type="curve"/>
      <point x="36" y="310" type="line"/>
      <point x="128" y="219"/>
      <point x="244" y="91"/>
      <point x="292" y="4" type="curve"/>
      <point x="379" y="118" type="line"/>
      <point x="327" y="202"/>
      <point x="205" y="322"/>
    </contour>
    <contour>
      <point x="252" y="839" type="curve"/>
      <point x="125" y="852" type="line"/>
      <point x="111" y="670"/>
      <point x="75" y="427"/>
      <point x="37" y="310" type="curve"/>
      <point x="70" y="297"/>
      <point x="116" y="274"/>
      <point x="141" y="256" type="curve"/>
      <point x="185" y="387"/>
      <point x="227" y="643"/>
    </contour>
  </outline>
</glyph>
<glyph name="ety116_cid14790_EL" format="1">
  <advance width="1000"/>
  <outline>
    <contour>
      <point x="103" y="320" type="curve"/>
      <point x="83" y="301" type="line"/>
      <point x="187" y="221"/>
      <point x="298" y="104"/>
      <point x="346" y="21" type="curve"/>
      <point x="369" y="42" type="line"/>
      <point x="321" y="124"/>
      <point x="209" y="239"/>
    </contour>
    <contour>
      <point x="245" y="828" type="curve"/>
      <point x="213" y="831" type="line"/>
      <point x="187" y="668"/>
      <point x="138" y="445"/>
      <point x="84" y="300" type="curve"/>
      <point x="90" y="298"/>
      <point x="102" y="292"/>
      <point x="109" y="289" type="curve"/>
      <point x="165" y="440"/>
      <point x="215" y="661"/>
    </contour>
  </outline>
</glyph>
<glyph name="ety117_cid14790_H" format="1">
  <advance width="1000"/>
  <outline>
    <contour>
      <point x="105" y="362" type="curve"/>
      <point x="29" y="263" type="line"/>
      <point x="128" y="194"/>
      <point x="249" y="91"/>
      <point x="300" y="18" type="curve"/>
      <point x="385" y="131" type="line"/>
      <point x="330" y="203"/>
      <point x="203" y="298"/>
    </contour>
    <contour>
      <point x="266" y="836" type="curve"/>
      <point x="143" y="854" type="line"/>
      <point x="126" y="636"/>
      <point x="85" y="387"/>
      <point x="30" y="262" type="curve"/>
      <point x="62" y="248"/>
      <point x="107" y="223"/>
      <point x="131" y="205" type="curve"/>
      <point x="192" y="345"/>
      <point x="240" y="608"/>
    </contour>
  </outline>
</glyph>
<glyph name="ety118_cid14796_EL" format="1">
  <advance width="1000"/>
  <outline>
    <contour>
      <point x="89" y="299" type="curve"/>
      <point x="67" y="281" type="line"/>
      <point x="168" y="216"/>
      <point x="277" y="117"/>
      <point x="326" y="45" type="curve"/>
      <point x="349" y="66" type="line"/>
      <point x="300" y="137"/>
      <point x="190" y="234"/>
    </contour>
    <contour>
      <point x="210" y="830" type="curve"/>
      <point x="178" y="833" type="line"/>
      <point x="159" y="658"/>
      <point x="119" y="427"/>
      <point x="68" y="281" type="curve"/>
      <point x="76" y="278"/>
      <point x="87" y="273"/>
      <point x="94" y="270" type="curve"/>
      <point x="146" y="423"/>
      <point x="187" y="650"/>
    </contour>
  </outline>
</glyph>
<glyph name="ety119_cid14796_H" format="1">
  <advance width="1000"/>
  <outline>
    <contour>
      <point x="118" y="342" type="curve"/>
      <point x="29" y="252" type="line"/>
      <point x="128" y="166"/>
      <point x="252" y="44"/>
      <point x="305" y="-38" type="curve"/>
      <point x="403" y="66" type="line"/>
      <point x="346" y="147"/>
      <point x="215" y="262"/>
    </contour>
    <contour>
      <point x="259" y="842" type="curve"/>
      <point x="126" y="854" type="line"/>
      <point x="112" y="652"/>
      <point x="73" y="382"/>
      <point x="30" y="252" type="curve"/>
      <point x="66" y="240"/>
      <point x="115" y="218"/>
      <point x="142" y="200" type="curve"/>
      <point x="190" y="346"/>
      <point x="234" y="629"/>
    </contour>
  </outline>
</glyph>
<glyph name="ety120_cid14802_H" format="1">
  <advance width="1000"/>
  <outline>
    <contour>
      <point x="89" y="394" type="curve"/>
      <point x="22" y="290" type="line"/>
      <point x="118" y="206"/>
      <point x="240" y="88"/>
      <point x="291" y="7" type="curve"/>
      <point x="366" y="129" type="line"/>
      <point x="314" y="204"/>
      <point x="186" y="315"/>
    </contour>
    <contour>
      <point x="262" y="842" type="curve"/>
      <point x="131" y="854" type="line"/>
      <point x="113" y="665"/>
      <point x="70" y="414"/>
      <point x="23" y="290" type="curve"/>
      <point x="57" y="278"/>
      <point x="104" y="257"/>
      <point x="131" y="240" type="curve"/>
      <point x="183" y="378"/>
      <point x="233" y="641"/>
    </contour>
  </outline>
</glyph>
<glyph name="ety121_cid14804_H" format="1">
  <advance width="1000"/>
  <outline>
    <contour>
      <point x="111" y="346" type="curve"/>
      <point x="30" y="253" type="line"/>
      <point x="118" y="181"/>
      <point x="232" y="77"/>
      <point x="281" y="6" type="curve"/>
      <point x="369" y="113" type="line"/>
      <point x="316" y="183"/>
      <point x="197" y="280"/>
    </contour>
    <contour>
      <point x="248" y="842" type="curve"/>
      <point x="121" y="854" type="line"/>
      <point x="107" y="652"/>
      <point x="71" y="382"/>
      <point x="30" y="252" type="curve"/>
      <point x="64" y="240"/>
      <point x="110" y="218"/>
      <point x="136" y="200" type="curve"/>
      <point x="182" y="346"/>
      <point x="224" y="629"/>
    </contour>
  </outline>
</glyph>
<glyph name="ety122_cid14808_H" format="1">
  <advance width="1000"/>
  <outline>
    <contour>
      <point x="133" y="343" type="curve"/>
      <point x="44" y="253" type="line"/>
      <point x="143" y="167"/>
      <point x="267" y="45"/>
      <point x="320" y="-37" type="curve"/>
      <point x="418" y="67" type="line"/>
      <point x="361" y="148"/>
      <point x="230" y="263"/>
    </contour>
    <contour>
      <point x="273" y="842" type="curve"/>
      <point x="140" y="854" type="line"/>
      <point x="126" y="652"/>
      <point x="87" y="382"/>
      <point x="44" y="252" type="curve"/>
      <point x="80" y="240"/>
      <point x="129" y="218"/>
      <point x="156" y="200" type="curve"/>
      <point x="204" y="346"/>
      <point x="248" y="629"/>
    </contour>
  </outline>
</glyph>
<glyph name="ety123_cid14811_H" format="1">
  <advance width="1000"/>
  <outline>
    <contour>
      <point x="112" y="343" type="curve"/>
      <point x="29" y="253" type="line"/>
      <point x="121" y="167"/>
      <point x="238" y="45"/>
      <point x="288" y="-37" type="curve"/>
      <point x="380" y="67" type="line"/>
      <point x="326" y="148"/>
      <point x="204" y="263"/>
    </contour>
    <contour>
      <point x="244" y="842" type="curve"/>
      <point x="119" y="854" type="line"/>
      <point x="106" y="652"/>
      <point x="69" y="382"/>
      <point x="29" y="252" type="curve"/>
      <point x="63" y="240"/>
      <point x="108" y="218"/>
      <point x="134" y="200" type="curve"/>
      <point x="179" y="346"/>
      <point x="221" y="629"/>
    </contour>
  </outline>
</glyph>
<glyph name="ety125_cid14830_H" format="1">
  <advance width="1000"/>
  <outline>
    <contour>
      <point x="119" y="343" type="curve"/>
      <point x="30" y="253" type="line"/>
      <point x="128" y="168"/>
      <point x="251" y="47"/>
      <point x="303" y="-34" type="curve"/>
      <point x="401" y="70" type="line"/>
      <point x="344" y="150"/>
      <point x="215" y="264"/>
    </contour>
    <contour>
      <point x="259" y="842" type="curve"/>
      <point x="126" y="854" type="line"/>
      <point x="112" y="652"/>
      <point x="73" y="382"/>
      <point x="30" y="252" type="curve"/>
      <point x="66" y="240"/>
      <point x="115" y="218"/>
      <point x="142" y="200" type="curve"/>
      <point x="190" y="346"/>
      <point x="234" y="629"/>
    </contour>
  </outline>
</glyph>
<glyph name="ety126_cid14849_H" format="1">
  <advance width="1000"/>
  <outline>
    <contour>
      <point x="111" y="347" type="curve"/>
      <point x="29" y="253" type="line"/>
      <point x="125" y="178"/>
      <point x="248" y="68"/>
      <point x="301" y="-7" type="curve"/>
      <point x="391" y="101" type="line"/>
      <point x="334" y="175"/>
      <point x="205" y="277"/>
    </contour>
    <contour>
      <point x="253" y="842" type="curve"/>
      <point x="123" y="854" type="line"/>
      <point x="109" y="652"/>
      <point x="71" y="382"/>
      <point x="30" y="252" type="curve"/>
      <point x="64" y="240"/>
      <point x="112" y="218"/>
      <point x="138" y="200" type="curve"/>
      <point x="185" y="346"/>
      <point x="229" y="629"/>
    </contour>
  </outline>
</glyph>
<glyph name="ety127_cid14860_H" format="1">
  <advance width="1000"/>
  <outline>
    <contour>
      <point x="107" y="349" type="curve"/>
      <point x="30" y="253" type="line"/>
      <point x="122" y="184"/>
      <point x="240" y="82"/>
      <point x="292" y="13" type="curve"/>
      <point x="377" y="123" type="line"/>
      <point x="321" y="191"/>
      <point x="197" y="286"/>
    </contour>
    <contour>
      <point x="246" y="842" type="curve"/>
      <point x="120" y="854" type="line"/>
      <point x="106" y="652"/>
      <point x="70" y="382"/>
      <point x="29" y="252" type="curve"/>
      <point x="63" y="240"/>
      <point x="109" y="218"/>
      <point x="135" y="200" type="curve"/>
      <point x="181" y="346"/>
      <point x="223" y="629"/>
    </contour>
  </outline>
</glyph>
<glyph name="ety128_cid14869_H" format="1">
  <advance width="1000"/>
  <outline>
    <contour>
      <point x="119" y="341" type="curve"/>
      <point x="30" y="253" type="line"/>
      <point x="119" y="169"/>
      <point x="231" y="51"/>
      <point x="278" y="-29" type="curve"/>
      <point x="376" y="73" type="line"/>
      <point x="325" y="151"/>
      <point x="207" y="262"/>
    </contour>
    <contour>
      <point x="254" y="842" type="curve"/>
      <point x="124" y="854" type="line"/>
      <point x="110" y="652"/>
      <point x="72" y="382"/>
      <point x="30" y="252" type="curve"/>
      <point x="65" y="240"/>
      <point x="113" y="218"/>
      <point x="139" y="200" type="curve"/>
      <point x="187" y="346"/>
      <point x="230" y="629"/>
    </contour>
  </outline>
</glyph>
<glyph name="ety129_cid14878_H" format="1">
  <advance width="1000"/>
  <outline>
    <contour>
      <point x="95" y="405" type="curve"/>
      <point x="39" y="287" type="line"/>
      <point x="148" y="215"/>
      <point x="289" y="104"/>
      <point x="350" y="22" type="curve"/>
      <point x="413" y="160" type="line"/>
      <point x="349" y="238"/>
      <point x="202" y="340"/>
    </contour>
    <contour>
      <point x="271" y="837" type="curve"/>
      <point x="145" y="853" type="line"/>
      <point x="126" y="659"/>
      <point x="82" y="406"/>
      <point x="38" y="289" type="curve"/>
      <point x="70" y="275"/>
      <point x="115" y="249"/>
      <point x="140" y="229" type="curve"/>
      <point x="190" y="361"/>
      <point x="240" y="629"/>
    </contour>
  </outline>
</glyph>
<glyph name="ety130_cid14883_H" format="1">
  <advance width="1000"/>
  <outline>
    <contour>
      <point x="111" y="351" type="curve"/>
      <point x="36" y="253" type="line"/>
      <point x="130" y="187"/>
      <point x="254" y="89"/>
      <point x="309" y="21" type="curve"/>
      <point x="391" y="134" type="line"/>
      <point x="332" y="200"/>
      <point x="203" y="291"/>
    </contour>
    <contour>
      <point x="275" y="843" type="curve"/>
      <point x="148" y="856" type="line"/>
      <point x="129" y="652"/>
      <point x="84" y="383"/>
      <point x="36" y="254" type="curve"/>
      <point x="70" y="241"/>
      <point x="116" y="219"/>
      <point x="142" y="201" type="curve"/>
      <point x="195" y="346"/>
      <point x="245" y="627"/>
    </contour>
  </outline>
</glyph>
<glyph name="ety131_cid14884_EL" format="1">
  <advance width="1000"/>
  <outline>
    <contour>
      <point x="92" y="299" type="curve"/>
      <point x="71" y="281" type="line"/>
      <point x="170" y="217"/>
      <point x="277" y="119"/>
      <point x="325" y="48" type="curve"/>
      <point x="348" y="69" type="line"/>
      <point x="300" y="139"/>
      <point x="192" y="235"/>
    </contour>
    <contour>
      <point x="212" y="830" type="curve"/>
      <point x="180" y="833" type="line"/>
      <point x="161" y="658"/>
      <point x="121" y="427"/>
      <point x="70" y="281" type="curve"/>
      <point x="78" y="278"/>
      <point x="90" y="273"/>
      <point x="97" y="270" type="curve"/>
      <point x="148" y="423"/>
      <point x="189" y="650"/>
    </contour>
  </outline>
</glyph>
<glyph name="ety132_cid14884_H" format="1">
  <advance width="1000"/>
  <outline>
    <contour>
      <point x="114" y="343" type="curve"/>
      <point x="30" y="253" type="line"/>
      <point x="119" y="172"/>
      <point x="231" y="56"/>
      <point x="279" y="-22" type="curve"/>
      <point x="371" y="81" type="line"/>
      <point x="320" y="159"/>
      <point x="202" y="267"/>
    </contour>
    <contour>
      <point x="247" y="842" type="curve"/>
      <point x="120" y="854" type="line"/>
      <point x="106" y="652"/>
      <point x="70" y="382"/>
      <point x="29" y="252" type="curve"/>
      <point x="63" y="240"/>
      <point x="109" y="218"/>
      <point x="135" y="200" type="curve"/>
      <point x="181" y="346"/>
      <point x="223" y="629"/>
    </contour>
  </outline>
</glyph>
<glyph name="ety133_cid14891_H" format="1">
  <advance width="1000"/>
  <outline>
    <contour>
      <point x="111" y="382" type="curve"/>
      <point x="40" y="289" type="line"/>
      <point x="134" y="207"/>
      <point x="255" y="89"/>
      <point x="307" y="10" type="curve"/>
      <point x="385" y="118" type="line"/>
      <point x="330" y="195"/>
      <point x="204" y="305"/>
    </contour>
    <contour>
      <point x="243" y="827" type="curve"/>
      <point x="118" y="839" type="line"/>
      <point x="107" y="655"/>
      <point x="75" y="409"/>
      <point x="39" y="288" type="curve"/>
      <point x="72" y="276"/>
      <point x="118" y="254"/>
      <point x="143" y="237" type="curve"/>
      <point x="185" y="371"/>
      <point x="223" y="631"/>
    </contour>
  </outline>
</glyph>
<glyph name="ety135_cid14919_H" format="1">
  <advance width="1000"/>
  <outline>
    <contour>
      <point x="108" y="343" type="curve"/>
      <point x="29" y="252" type="line"/>
      <point x="130" y="170"/>
      <point x="259" y="51"/>
      <point x="315" y="-30" type="curve"/>
      <point x="402" y="76" type="line"/>
      <point x="342" y="156"/>
      <point x="207" y="267"/>
    </contour>
    <contour>
      <point x="248" y="842" type="curve"/>
      <point x="121" y="854" type="line"/>
      <point x="107" y="652"/>
      <point x="70" y="382"/>
      <point x="30" y="252" type="curve"/>
      <point x="63" y="240"/>
      <point x="110" y="218"/>
      <point x="136" y="200" type="curve"/>
      <point x="182" y="346"/>
      <point x="225" y="629"/>
    </contour>
  </outline>
</glyph>
<glyph name="ety136_cid14951_H" format="1">
  <advance width="1000"/>
  <outline>
    <contour>
      <point x="269" y="837" type="curve"/>
      <point x="138" y="853" type="line"/>
      <point x="120" y="661"/>
      <point x="78" y="411"/>
      <point x="35" y="298" type="curve"/>
      <point x="69" y="283"/>
      <point x="116" y="256"/>
      <point x="142" y="234" type="curve"/>
      <point x="191" y="363"/>
      <point x="239" y="629"/>
    </contour>
    <contour>
      <point x="122" y="398" type="curve"/>
      <point x="35" y="297" type="line"/>
      <point x="142" y="199"/>
      <point x="282" y="60"/>
      <point x="341" y="-34" type="curve"/>
      <point x="438" y="85" type="line"/>
      <point x="375" y="176"/>
      <point x="228" y="306"/>
    </contour>
  </outline>
</glyph>
<glyph name="ety137_cid14953_H" format="1">
  <advance width="1000"/>
  <outline>
    <contour>
      <point x="113" y="341" type="curve"/>
      <point x="29" y="252" type="line"/>
      <point x="113" y="175"/>
      <point x="219" y="66"/>
      <point x="264" y="-8" type="curve"/>
      <point x="356" y="95" type="line"/>
      <point x="307" y="168"/>
      <point x="196" y="270"/>
    </contour>
    <contour>
      <point x="248" y="842" type="curve"/>
      <point x="121" y="854" type="line"/>
      <point x="107" y="652"/>
      <point x="71" y="382"/>
      <point x="30" y="252" type="curve"/>
      <point x="64" y="240"/>
      <point x="110" y="218"/>
      <point x="136" y="200" type="curve"/>
      <point x="182" y="346"/>
      <point x="224" y="629"/>
    </contour>
  </outline>
</glyph>
<glyph name="ety138_cid14957_H" format="1">
  <advance width="1000"/>
  <outline>
    <contour>
      <point x="105" y="354" type="curve"/>
      <point x="29" y="253" type="line"/>
      <point x="119" y="171"/>
      <point x="233" y="54"/>
      <point x="282" y="-26" type="curve"/>
      <point x="366" y="91" type="line"/>
      <point x="315" y="168"/>
      <point x="195" y="277"/>
    </contour>
    <contour>
      <point x="253" y="841" type="curve"/>
      <point x="123" y="854" type="line"/>
      <point x="108" y="651"/>
      <point x="70" y="381"/>
      <point x="28" y="253" type="curve"/>
      <point x="63" y="241"/>
      <point x="111" y="218"/>
      <point x="137" y="200" type="curve"/>
      <point x="184" y="342"/>
      <point x="228" y="626"/>
    </contour>
  </outline>
</glyph>
<glyph name="ety140_cid15004_H" format="1">
  <advance width="1000"/>
  <outline>
    <contour>
      <point x="117" y="341" type="curve"/>
      <point x="30" y="252" type="line"/>
      <point x="111" y="181"/>
      <point x="213" y="79"/>
      <point x="256" y="10" type="curve"/>
      <point x="351" y="112" type="line"/>
      <point x="304" y="180"/>
      <point x="197" y="275"/>
    </contour>
    <contour>
      <point x="254" y="842" type="curve"/>
      <point x="124" y="854" type="line"/>
      <point x="109" y="651"/>
      <point x="71" y="380"/>
      <point x="29" y="252" type="curve"/>
      <point x="64" y="240"/>
      <point x="111" y="217"/>
      <point x="138" y="199" type="curve"/>
      <point x="185" y="342"/>
      <point x="229" y="626"/>
    </contour>
  </outline>
</glyph>
<glyph name="ety142_cid15031_H" format="1">
  <advance width="1000"/>
  <outline>
    <contour>
      <point x="110" y="342" type="curve"/>
      <point x="28" y="252" type="line"/>
      <point x="119" y="166"/>
      <point x="235" y="44"/>
      <point x="284" y="-38" type="curve"/>
      <point x="375" y="66" type="line"/>
      <point x="322" y="147"/>
      <point x="201" y="262"/>
    </contour>
    <contour>
      <point x="242" y="842" type="curve"/>
      <point x="118" y="854" type="line"/>
      <point x="105" y="652"/>
      <point x="69" y="382"/>
      <point x="29" y="252" type="curve"/>
      <point x="62" y="240"/>
      <point x="107" y="218"/>
      <point x="133" y="200" type="curve"/>
      <point x="177" y="346"/>
      <point x="219" y="629"/>
    </contour>
  </outline>
</glyph>
<glyph name="ety143_cid15041_H" format="1">
  <advance width="1000"/>
  <outline>
    <contour>
      <point x="120" y="340" type="curve"/>
      <point x="30" y="253" type="line"/>
      <point x="118" y="169"/>
      <point x="228" y="50"/>
      <point x="273" y="-29" type="curve"/>
      <point x="373" y="71" type="line"/>
      <point x="323" y="150"/>
      <point x="208" y="261"/>
    </contour>
    <contour>
      <point x="255" y="842" type="curve"/>
      <point x="124" y="854" type="line"/>
      <point x="110" y="652"/>
      <point x="72" y="382"/>
      <point x="30" y="252" type="curve"/>
      <point x="65" y="240"/>
      <point x="113" y="218"/>
      <point x="140" y="200" type="curve"/>
      <point x="187" y="346"/>
      <point x="231" y="629"/>
    </contour>
  </outline>
</glyph>
<glyph name="ety144_cid15044_H" format="1">
  <advance width="1000"/>
  <outline>
    <contour>
      <point x="116" y="341" type="curve"/>
      <point x="30" y="253" type="line"/>
      <point x="121" y="167"/>
      <point x="235" y="45"/>
      <point x="283" y="-37" type="curve"/>
      <point x="378" y="66" type="line"/>
      <point x="326" y="147"/>
      <point x="206" y="261"/>
    </contour>
    <contour>
      <point x="250" y="842" type="curve"/>
      <point x="122" y="854" type="line"/>
      <point x="108" y="652"/>
      <point x="71" y="382"/>
      <point x="30" y="252" type="curve"/>
      <point x="64" y="240"/>
      <point x="111" y="218"/>
      <point x="137" y="200" type="curve"/>
      <point x="183" y="346"/>
      <point x="226" y="629"/>
    </contour>
  </outline>
</glyph>
<glyph name="ety145_cid15066_H" format="1">
  <advance width="1000"/>
  <outline>
    <contour>
      <point x="111" y="349" type="curve"/>
      <point x="30" y="253" type="line"/>
      <point x="130" y="183"/>
      <point x="259" y="80"/>
      <point x="316" y="9" type="curve"/>
      <point x="405" y="120" type="line"/>
      <point x="343" y="189"/>
      <point x="209" y="286"/>
    </contour>
    <contour>
      <point x="259" y="842" type="curve"/>
      <point x="126" y="854" type="line"/>
      <point x="112" y="652"/>
      <point x="73" y="382"/>
      <point x="30" y="252" type="curve"/>
      <point x="66" y="240"/>
      <point x="115" y="218"/>
      <point x="142" y="200" type="curve"/>
      <point x="190" y="346"/>
      <point x="234" y="629"/>
    </contour>
  </outline>
</glyph>
<glyph name="ety146_cid15068_H" format="1">
  <advance width="1000"/>
  <outline>
    <contour>
      <point x="113" y="343" type="curve"/>
      <point x="29" y="253" type="line"/>
      <point x="122" y="167"/>
      <point x="241" y="45"/>
      <point x="291" y="-37" type="curve"/>
      <point x="384" y="67" type="line"/>
      <point x="329" y="148"/>
      <point x="205" y="263"/>
    </contour>
    <contour>
      <point x="246" y="842" type="curve"/>
      <point x="120" y="854" type="line"/>
      <point x="106" y="652"/>
      <point x="70" y="382"/>
      <point x="29" y="252" type="curve"/>
      <point x="63" y="240"/>
      <point x="109" y="218"/>
      <point x="135" y="200" type="curve"/>
      <point x="181" y="346"/>
      <point x="223" y="629"/>
    </contour>
  </outline>
</glyph>
<glyph name="ety147_cid15092_H" format="1">
  <advance width="1000"/>
  <outline>
    <contour>
      <point x="102" y="382" type="curve"/>
      <point x="37" y="289" type="line"/>
      <point x="114" y="216"/>
      <point x="214" y="111"/>
      <point x="256" y="40" type="curve"/>
      <point x="328" y="147" type="line"/>
      <point x="283" y="215"/>
      <point x="179" y="314"/>
    </contour>
    <contour>
      <point x="224" y="827" type="curve"/>
      <point x="109" y="839" type="line"/>
      <point x="99" y="655"/>
      <point x="70" y="409"/>
      <point x="36" y="288" type="curve"/>
      <point x="66" y="276"/>
      <point x="109" y="254"/>
      <point x="132" y="237" type="curve"/>
      <point x="170" y="371"/>
      <point x="205" y="631"/>
    </contour>
  </outline>
</glyph>
<glyph name="ety148_cid15117_EL" format="1">
  <advance width="1000"/>
  <outline>
    <contour>
      <point x="452" y="319" type="curve"/>
      <point x="424" y="328" type="line"/>
      <point x="370" y="257"/>
      <point x="292" y="163"/>
      <point x="236" y="102" type="curve"/>
      <point x="273" y="102" type="line"/>
      <point x="323" y="158"/>
      <point x="398" y="248"/>
    </contour>
    <contour>
      <point x="262" y="124" type="curve"/>
      <point x="236" y="101" type="line"/>
      <point x="510" y="57"/>
      <point x="763" y="-5"/>
      <point x="916" y="-68" type="curve"/>
      <point x="945" y="-44" type="line"/>
      <point x="785" y="20"/>
      <point x="523" y="83"/>
    </contour>
  </outline>
</glyph>
<glyph name="ety149_cid15117_H" format="1">
  <advance width="1000"/>
  <outline>
    <contour>
      <point x="496" y="331" type="curve"/>
      <point x="354" y="367" type="line"/>
      <point x="297" y="276"/>
      <point x="214" y="161"/>
      <point x="154" y="89" type="curve"/>
      <point x="316" y="89" type="line"/>
      <point x="364" y="147"/>
      <point x="438" y="247"/>
    </contour>
    <contour>
      <point x="248" y="185" type="curve"/>
      <point x="154" y="88" type="line"/>
      <point x="415" y="34"/>
      <point x="667" y="-39"/>
      <point x="818" y="-96" type="curve"/>
      <point x="929" y="14" type="line"/>
      <point x="765" y="67"/>
      <point x="495" y="137"/>
    </contour>
  </outline>
</glyph>
<glyph name="ety151_cid15137_H" format="1">
  <advance width="1000"/>
  <outline>
    <contour>
      <point x="115" y="343" type="curve"/>
      <point x="34" y="253" type="line"/>
      <point x="121" y="171"/>
      <point x="231" y="54"/>
      <point x="277" y="-25" type="curve"/>
      <point x="367" y="78" type="line"/>
      <point x="317" y="156"/>
      <point x="201" y="266"/>
    </contour>
    <contour>
      <point x="244" y="842" type="curve"/>
      <point x="122" y="854" type="line"/>
      <point x="109" y="652"/>
      <point x="73" y="382"/>
      <point x="34" y="252" type="curve"/>
      <point x="67" y="240"/>
      <point x="111" y="218"/>
      <point x="137" y="200" type="curve"/>
      <point x="181" y="346"/>
      <point x="222" y="629"/>
    </contour>
  </outline>
</glyph>
<glyph name="ety152_cid15142_H" format="1">
  <advance width="1000"/>
  <outline>
    <contour>
      <point x="114" y="343" type="curve"/>
      <point x="29" y="253" type="line"/>
      <point x="116" y="174"/>
      <point x="226" y="62"/>
      <point x="273" y="-13" type="curve"/>
      <point x="367" y="90" type="line"/>
      <point x="316" y="165"/>
      <point x="201" y="270"/>
    </contour>
    <contour>
      <point x="249" y="842" type="curve"/>
      <point x="121" y="854" type="line"/>
      <point x="107" y="652"/>
      <point x="70" y="382"/>
      <point x="29" y="252" type="curve"/>
      <point x="63" y="240"/>
      <point x="110" y="218"/>
      <point x="136" y="200" type="curve"/>
      <point x="183" y="346"/>
      <point x="226" y="629"/>
    </contour>
  </outline>
</glyph>
<glyph name="ety153_cid15166_H" format="1">
  <advance width="1000"/>
  <outline>
    <contour>
      <point x="254" y="841" type="curve"/>
      <point x="126" y="856" type="line"/>
      <point x="110" y="665"/>
      <point x="72" y="413"/>
      <point x="32" y="297" type="curve"/>
      <point x="65" y="283"/>
      <point x="111" y="257"/>
      <point x="137" y="237" type="curve"/>
      <point x="183" y="368"/>
      <point x="227" y="636"/>
    </contour>
    <contour>
      <point x="110" y="398" type="curve"/>
      <point x="32" y="296" type="line"/>
      <point x="137" y="198"/>
      <point x="271" y="61"/>
      <point x="327" y="-33" type="curve"/>
      <point x="415" y="87" type="line"/>
      <point x="356" y="177"/>
      <point x="215" y="306"/>
    </contour>
  </outline>
</glyph>
<glyph name="ety154_cid15181_H" format="1">
  <advance width="1000"/>
  <outline>
    <contour>
      <point x="106" y="348" type="curve"/>
      <point x="29" y="252" type="line"/>
      <point x="115" y="173"/>
      <point x="225" y="61"/>
      <point x="272" y="-16" type="curve"/>
      <point x="357" y="95" type="line"/>
      <point x="307" y="170"/>
      <point x="192" y="275"/>
    </contour>
    <contour>
      <point x="246" y="842" type="curve"/>
      <point x="120" y="854" type="line"/>
      <point x="106" y="652"/>
      <point x="70" y="382"/>
      <point x="30" y="252" type="curve"/>
      <point x="63" y="240"/>
      <point x="109" y="218"/>
      <point x="135" y="200" type="curve"/>
      <point x="180" y="346"/>
      <point x="222" y="629"/>
    </contour>
  </outline>
</glyph>
<glyph name="ety156_cid15200_H" format="1">
  <advance width="1000"/>
  <outline>
    <contour>
      <point x="114" y="347" type="curve"/>
      <point x="30" y="253" type="line"/>
      <point x="126" y="179"/>
      <point x="250" y="72"/>
      <point x="304" y="-1" type="curve"/>
      <point x="396" y="107" type="line"/>
      <point x="338" y="179"/>
      <point x="209" y="279"/>
    </contour>
    <contour>
      <point x="259" y="842" type="curve"/>
      <point x="126" y="854" type="line"/>
      <point x="112" y="652"/>
      <point x="73" y="382"/>
      <point x="30" y="252" type="curve"/>
      <point x="66" y="240"/>
      <point x="115" y="218"/>
      <point x="142" y="200" type="curve"/>
      <point x="190" y="346"/>
      <point x="234" y="629"/>
    </contour>
  </outline>
</glyph>
<glyph name="ety157_cid15202_EL" format="1">
  <advance width="1000"/>
  <outline>
    <contour>
      <point x="93" y="301" type="curve"/>
      <point x="69" y="282" type="line"/>
      <point x="188" y="211"/>
      <point x="317" y="103"/>
      <point x="375" y="24" type="curve"/>
      <point x="401" y="44" type="line"/>
      <point x="342" y="123"/>
      <point x="213" y="229"/>
    </contour>
    <contour>
      <point x="226" y="830" type="curve"/>
      <point x="190" y="833" type="line"/>
      <point x="170" y="658"/>
      <point x="127" y="427"/>
      <point x="71" y="281" type="curve"/>
      <point x="80" y="278"/>
      <point x="93" y="273"/>
      <point x="100" y="270" type="curve"/>
      <point x="156" y="423"/>
      <point x="201" y="650"/>
    </contour>
  </outline>
</glyph>
<glyph name="ety158_cid15202_H" format="1">
  <advance width="1000"/>
  <outline>
    <contour>
      <point x="118" y="343" type="curve"/>
      <point x="30" y="253" type="line"/>
      <point x="128" y="167"/>
      <point x="251" y="45"/>
      <point x="303" y="-37" type="curve"/>
      <point x="400" y="67" type="line"/>
      <point x="343" y="148"/>
      <point x="214" y="263"/>
    </contour>
    <contour>
      <point x="257" y="842" type="curve"/>
      <point x="125" y="854" type="line"/>
      <point x="111" y="652"/>
      <point x="73" y="382"/>
      <point x="30" y="252" type="curve"/>
      <point x="65" y="240"/>
      <point x="114" y="218"/>
      <point x="141" y="200" type="curve"/>
      <point x="188" y="346"/>
      <point x="232" y="629"/>
    </contour>
  </outline>
</glyph>
<glyph name="ety159_cid15208_H" format="1">
  <advance width="1000"/>
  <outline>
    <contour>
      <point x="112" y="380" type="curve"/>
      <point x="40" y="289" type="line"/>
      <point x="138" y="207"/>
      <point x="263" y="89"/>
      <point x="317" y="10" type="curve"/>
      <point x="396" y="116" type="line"/>
      <point x="340" y="193"/>
      <point x="209" y="303"/>
    </contour>
    <contour>
      <point x="251" y="827" type="curve"/>
      <point x="121" y="839" type="line"/>
      <point x="110" y="655"/>
      <point x="77" y="409"/>
      <point x="39" y="288" type="curve"/>
      <point x="73" y="276"/>
      <point x="121" y="254"/>
      <point x="147" y="237" type="curve"/>
      <point x="190" y="371"/>
      <point x="230" y="631"/>
    </contour>
  </outline>
</glyph>
<glyph name="ety160_cid15224_H" format="1">
  <advance width="1000"/>
  <outline>
    <contour>
      <point x="111" y="343" type="curve"/>
      <point x="28" y="253" type="line"/>
      <point x="120" y="167"/>
      <point x="236" y="45"/>
      <point x="285" y="-37" type="curve"/>
      <point x="377" y="67" type="line"/>
      <point x="323" y="148"/>
      <point x="201" y="263"/>
    </contour>
    <contour>
      <point x="242" y="842" type="curve"/>
      <point x="118" y="854" type="line"/>
      <point x="105" y="652"/>
      <point x="69" y="382"/>
      <point x="29" y="252" type="curve"/>
      <point x="62" y="240"/>
      <point x="107" y="218"/>
      <point x="133" y="200" type="curve"/>
      <point x="178" y="346"/>
      <point x="219" y="629"/>
    </contour>
  </outline>
</glyph>
<glyph name="ety162_cid15231_H" format="1">
  <advance width="1000"/>
  <outline>
    <contour>
      <point x="91" y="387" type="curve"/>
      <point x="37" y="289" type="line"/>
      <point x="120" y="217"/>
      <point x="230" y="111"/>
      <point x="278" y="38" type="curve"/>
      <point x="338" y="152" type="line"/>
      <point x="287" y="222"/>
      <point x="173" y="321"/>
    </contour>
    <contour>
      <point x="207" y="827" type="curve"/>
      <point x="102" y="839" type="line"/>
      <point x="93" y="655"/>
      <point x="66" y="409"/>
      <point x="35" y="288" type="curve"/>
      <point x="63" y="276"/>
      <point x="102" y="254"/>
      <point x="123" y="237" type="curve"/>
      <point x="158" y="371"/>
      <point x="190" y="631"/>
    </contour>
  </outline>
</glyph>
<glyph name="ety163_cid15235_EL" format="1">
  <advance width="1000"/>
  <outline>
    <contour>
      <point x="100" y="303" type="curve"/>
      <point x="77" y="286" type="line"/>
      <point x="166" y="223"/>
      <point x="264" y="130"/>
      <point x="307" y="64" type="curve"/>
      <point x="332" y="82" type="line"/>
      <point x="287" y="148"/>
      <point x="189" y="240"/>
    </contour>
    <contour>
      <point x="216" y="835" type="curve"/>
      <point x="183" y="838" type="line"/>
      <point x="165" y="663"/>
      <point x="127" y="432"/>
      <point x="78" y="286" type="curve"/>
      <point x="85" y="283"/>
      <point x="98" y="278"/>
      <point x="105" y="275" type="curve"/>
      <point x="155" y="428"/>
      <point x="194" y="656"/>
    </contour>
  </outline>
</glyph>
<glyph name="ety164_cid15235_H" format="1">
  <advance width="1000"/>
  <outline>
    <contour>
      <point x="109" y="382" type="curve"/>
      <point x="38" y="289" type="line"/>
      <point x="132" y="207"/>
      <point x="253" y="89"/>
      <point x="305" y="10" type="curve"/>
      <point x="383" y="118" type="line"/>
      <point x="328" y="195"/>
      <point x="202" y="305"/>
    </contour>
    <contour>
      <point x="241" y="827" type="curve"/>
      <point x="116" y="839" type="line"/>
      <point x="105" y="655"/>
      <point x="73" y="409"/>
      <point x="37" y="288" type="curve"/>
      <point x="70" y="276"/>
      <point x="116" y="254"/>
      <point x="141" y="237" type="curve"/>
      <point x="183" y="371"/>
      <point x="221" y="631"/>
    </contour>
  </outline>
</glyph>
<glyph name="ety165_cid15243_H" format="1">
  <advance width="1000"/>
  <outline>
    <contour>
      <point x="106" y="373" type="curve"/>
      <point x="36" y="289" type="line"/>
      <point x="118" y="208"/>
      <point x="221" y="91"/>
      <point x="266" y="13" type="curve"/>
      <point x="342" y="110" type="line"/>
      <point x="294" y="187"/>
      <point x="186" y="297"/>
    </contour>
    <contour>
      <point x="213" y="827" type="curve"/>
      <point x="104" y="839" type="line"/>
      <point x="94" y="655"/>
      <point x="67" y="409"/>
      <point x="35" y="288" type="curve"/>
      <point x="64" y="276"/>
      <point x="104" y="254"/>
      <point x="126" y="237" type="curve"/>
      <point x="162" y="371"/>
      <point x="195" y="631"/>
    </contour>
  </outline>
</glyph>
<glyph name="ety166_cid15247_H" format="1">
  <advance width="1000"/>
  <outline>
    <contour>
      <point x="110" y="343" type="curve"/>
      <point x="28" y="253" type="line"/>
      <point x="115" y="172"/>
      <point x="225" y="56"/>
      <point x="271" y="-22" type="curve"/>
      <point x="362" y="81" type="line"/>
      <point x="312" y="159"/>
      <point x="196" y="267"/>
    </contour>
    <contour>
      <point x="242" y="842" type="curve"/>
      <point x="118" y="854" type="line"/>
      <point x="105" y="652"/>
      <point x="69" y="382"/>
      <point x="29" y="252" type="curve"/>
      <point x="62" y="240"/>
      <point x="107" y="218"/>
      <point x="133" y="200" type="curve"/>
      <point x="178" y="346"/>
      <point x="219" y="629"/>
    </contour>
  </outline>
</glyph>
<glyph name="ety167_cid15264_H" format="1">
  <advance width="1000"/>
  <outline>
    <contour>
      <point x="109" y="342" type="curve"/>
      <point x="29" y="252" type="line"/>
      <point x="117" y="168"/>
      <point x="227" y="48"/>
      <point x="274" y="-32" type="curve"/>
      <point x="363" y="72" type="line"/>
      <point x="312" y="151"/>
      <point x="196" y="263"/>
    </contour>
    <contour>
      <point x="236" y="842" type="curve"/>
      <point x="115" y="854" type="line"/>
      <point x="102" y="652"/>
      <point x="67" y="382"/>
      <point x="28" y="252" type="curve"/>
      <point x="60" y="240"/>
      <point x="105" y="218"/>
      <point x="129" y="200" type="curve"/>
      <point x="173" y="346"/>
      <point x="213" y="629"/>
    </contour>
  </outline>
</glyph>
<glyph name="ety168_cid15277_EL" format="1">
  <advance width="1000"/>
  <outline>
    <contour>
      <point x="87" y="299" type="curve"/>
      <point x="67" y="281" type="line"/>
      <point x="162" y="215"/>
      <point x="265" y="115"/>
      <point x="311" y="42" type="curve"/>
      <point x="332" y="63" type="line"/>
      <point x="286" y="135"/>
      <point x="182" y="234"/>
    </contour>
    <contour>
      <point x="198" y="830" type="curve"/>
      <point x="168" y="833" type="line"/>
      <point x="150" y="658"/>
      <point x="113" y="427"/>
      <point x="65" y="281" type="curve"/>
      <point x="73" y="278"/>
      <point x="84" y="273"/>
      <point x="90" y="270" type="curve"/>
      <point x="138" y="423"/>
      <point x="177" y="650"/>
    </contour>
  </outline>
</glyph>
<glyph name="ety169_cid15277_H" format="1">
  <advance width="1000"/>
  <outline>
    <contour>
      <point x="105" y="343" type="curve"/>
      <point x="29" y="253" type="line"/>
      <point x="113" y="167"/>
      <point x="219" y="45"/>
      <point x="264" y="-37" type="curve"/>
      <point x="348" y="67" type="line"/>
      <point x="299" y="148"/>
      <point x="188" y="263"/>
    </contour>
    <contour>
      <point x="225" y="842" type="curve"/>
      <point x="111" y="854" type="line"/>
      <point x="99" y="652"/>
      <point x="66" y="382"/>
      <point x="29" y="252" type="curve"/>
      <point x="60" y="240"/>
      <point x="101" y="218"/>
      <point x="124" y="200" type="curve"/>
      <point x="166" y="346"/>
      <point x="203" y="629"/>
    </contour>
  </outline>
</glyph>
<glyph name="ety170_cid15285_H" format="1">
  <advance width="1000"/>
  <outline>
    <contour>
      <point x="104" y="382" type="curve"/>
      <point x="38" y="289" type="line"/>
      <point x="125" y="207"/>
      <point x="238" y="89"/>
      <point x="286" y="10" type="curve"/>
      <point x="359" y="118" type="line"/>
      <point x="308" y="195"/>
      <point x="191" y="305"/>
    </contour>
    <contour>
      <point x="228" y="827" type="curve"/>
      <point x="111" y="839" type="line"/>
      <point x="101" y="655"/>
      <point x="71" y="409"/>
      <point x="37" y="288" type="curve"/>
      <point x="68" y="276"/>
      <point x="111" y="254"/>
      <point x="134" y="237" type="curve"/>
      <point x="173" y="371"/>
      <point x="208" y="631"/>
    </contour>
  </outline>
</glyph>
<glyph name="ety171_cid15295_H" format="1">
  <advance width="1000"/>
  <outline>
    <contour>
      <point x="244" y="841" type="curve"/>
      <point x="116" y="856" type="line"/>
      <point x="100" y="665"/>
      <point x="62" y="413"/>
      <point x="22" y="297" type="curve"/>
      <point x="55" y="283"/>
      <point x="101" y="257"/>
      <point x="127" y="237" type="curve"/>
      <point x="173" y="368"/>
      <point x="217" y="636"/>
    </contour>
    <contour>
      <point x="107" y="393" type="curve"/>
      <point x="22" y="296" type="line"/>
      <point x="119" y="189"/>
      <point x="240" y="43"/>
      <point x="289" y="-56" type="curve"/>
      <point x="385" y="58" type="line"/>
      <point x="334" y="153"/>
      <point x="206" y="291"/>
    </contour>
  </outline>
</glyph>
<glyph name="ety174_cid15326_H" format="1">
  <advance width="1000"/>
  <outline>
    <contour>
      <point x="103" y="379" type="curve"/>
      <point x="41" y="289" type="line"/>
      <point x="139" y="207"/>
      <point x="263" y="89"/>
      <point x="318" y="10" type="curve"/>
      <point x="387" y="115" type="line"/>
      <point x="331" y="191"/>
      <point x="201" y="301"/>
    </contour>
    <contour>
      <point x="257" y="827" type="curve"/>
      <point x="135" y="839" type="line"/>
      <point x="120" y="656"/>
      <point x="83" y="411"/>
      <point x="41" y="288" type="curve"/>
      <point x="73" y="277"/>
      <point x="118" y="256"/>
      <point x="142" y="240" type="curve"/>
      <point x="189" y="376"/>
      <point x="232" y="633"/>
    </contour>
  </outline>
</glyph>
<glyph name="ety175_cid15329_EL" format="1">
  <advance width="1000"/>
  <outline>
    <contour>
      <point x="95" y="303" type="curve"/>
      <point x="75" y="285" type="line"/>
      <point x="152" y="225"/>
      <point x="237" y="133"/>
      <point x="277" y="69" type="curve"/>
      <point x="298" y="88" type="line"/>
      <point x="259" y="153"/>
      <point x="173" y="243"/>
    </contour>
    <contour>
      <point x="191" y="835" type="curve"/>
      <point x="163" y="838" type="line"/>
      <point x="147" y="663"/>
      <point x="115" y="432"/>
      <point x="74" y="286" type="curve"/>
      <point x="81" y="283"/>
      <point x="91" y="278"/>
      <point x="98" y="274" type="curve"/>
      <point x="140" y="427"/>
      <point x="174" y="655"/>
    </contour>
  </outline>
</glyph>
<glyph name="ety176_cid15332_H" format="1">
  <advance width="1000"/>
  <outline>
    <contour>
      <point x="103" y="344" type="curve"/>
      <point x="28" y="252" type="line"/>
      <point x="116" y="170"/>
      <point x="228" y="51"/>
      <point x="277" y="-29" type="curve"/>
      <point x="359" y="77" type="line"/>
      <point x="307" y="157"/>
      <point x="189" y="268"/>
    </contour>
    <contour>
      <point x="232" y="842" type="curve"/>
      <point x="112" y="854" type="line"/>
      <point x="100" y="651"/>
      <point x="66" y="380"/>
      <point x="29" y="252" type="curve"/>
      <point x="61" y="239"/>
      <point x="105" y="216"/>
      <point x="130" y="198" type="curve"/>
      <point x="172" y="342"/>
      <point x="211" y="626"/>
    </contour>
  </outline>
</glyph>
<glyph name="ety177_cid15347_EL" format="1">
  <advance width="1000"/>
  <outline>
    <contour>
      <point x="94" y="303" type="curve"/>
      <point x="74" y="286" type="line"/>
      <point x="164" y="218"/>
      <point x="264" y="115"/>
      <point x="310" y="42" type="curve"/>
      <point x="331" y="61" type="line"/>
      <point x="285" y="134"/>
      <point x="184" y="235"/>
    </contour>
    <contour>
      <point x="196" y="835" type="curve"/>
      <point x="168" y="838" type="line"/>
      <point x="152" y="663"/>
      <point x="118" y="432"/>
      <point x="75" y="286" type="curve"/>
      <point x="82" y="283"/>
      <point x="92" y="278"/>
      <point x="98" y="275" type="curve"/>
      <point x="142" y="428"/>
      <point x="178" y="656"/>
    </contour>
  </outline>
</glyph>
<glyph name="ety178_cid15347_H" format="1">
  <advance width="1000"/>
  <outline>
    <contour>
      <point x="99" y="382" type="curve"/>
      <point x="37" y="289" type="line"/>
      <point x="119" y="207"/>
      <point x="224" y="89"/>
      <point x="269" y="10" type="curve"/>
      <point x="337" y="118" type="line"/>
      <point x="289" y="195"/>
      <point x="180" y="305"/>
    </contour>
    <contour>
      <point x="213" y="827" type="curve"/>
      <point x="104" y="839" type="line"/>
      <point x="94" y="655"/>
      <point x="67" y="409"/>
      <point x="35" y="288" type="curve"/>
      <point x="64" y="276"/>
      <point x="104" y="254"/>
      <point x="126" y="237" type="curve"/>
      <point x="162" y="371"/>
      <point x="195" y="631"/>
    </contour>
  </outline>
</glyph>
<glyph name="ety179_cid15353_H" format="1">
  <advance width="1000"/>
  <outline>
    <contour>
      <point x="100" y="344" type="curve"/>
      <point x="27" y="252" type="line"/>
      <point x="114" y="170"/>
      <point x="224" y="52"/>
      <point x="272" y="-28" type="curve"/>
      <point x="352" y="80" type="line"/>
      <point x="301" y="159"/>
      <point x="185" y="269"/>
    </contour>
    <contour>
      <point x="225" y="842" type="curve"/>
      <point x="109" y="854" type="line"/>
      <point x="97" y="652"/>
      <point x="64" y="380"/>
      <point x="28" y="252" type="curve"/>
      <point x="59" y="239"/>
      <point x="101" y="217"/>
      <point x="125" y="199" type="curve"/>
      <point x="166" y="343"/>
      <point x="204" y="627"/>
    </contour>
  </outline>
</glyph>
<glyph name="ety180_cid15411_H" format="1">
  <advance width="1000"/>
  <outline>
    <contour>
      <point x="148" y="650" type="curve"/>
      <point x="59" y="576" type="line"/>
      <point x="176" y="535"/>
      <point x="323" y="466"/>
      <point x="404" y="416" type="curve"/>
      <point x="493" y="499" type="line"/>
      <point x="407" y="545"/>
      <point x="264" y="610"/>
    </contour>
    <contour>
      <point x="58" y="574" type="curve"/>
      <point x="195" y="552" type="line"/>
      <point x="244" y="622"/>
      <point x="309" y="732"/>
      <point x="349" y="831" type="curve"/>
      <point x="220" y="857" type="line"/>
      <point x="183" y="762"/>
      <point x="114" y="648"/>
    </contour>
  </outline>
</glyph>
<glyph name="ety181_cid16453_EL" format="1">
  <advance width="1000"/>
  <outline>
    <contour>
      <point x="665" y="312" type="curve"/>
      <point x="635" y="320" type="line"/>
      <point x="592" y="243"/>
      <point x="529" y="140"/>
      <point x="483" y="77" type="curve"/>
      <point x="517" y="73" type="line"/>
      <point x="559" y="134"/>
      <point x="621" y="234"/>
    </contour>
    <contour>
      <point x="504" y="96" type="curve"/>
      <point x="483" y="76" type="line"/>
      <point x="634" y="42"/>
      <point x="821" y="-18"/>
      <point x="918" y="-65" type="curve"/>
      <point x="940" y="-42" type="line"/>
      <point x="837" y="8"/>
      <point x="651" y="65"/>
    </contour>
  </outline>
</glyph>
<glyph name="ety182_cid16616_EL" format="1">
  <advance width="1000"/>
  <outline>
    <contour>
      <point x="146" y="133" type="curve"/>
      <point x="121" y="113" type="line"/>
      <point x="219" y="88"/>
      <point x="338" y="38"/>
      <point x="401" y="1" type="curve"/>
      <point x="426" y="25" type="line"/>
      <point x="361" y="61"/>
      <point x="240" y="109"/>
    </contour>
    <contour>
      <point x="122" y="113" type="curve"/>
      <point x="156" y="111" type="line"/>
      <point x="193" y="156"/>
      <point x="245" y="230"/>
      <point x="278" y="294" type="curve"/>
      <point x="246" y="303" type="line"/>
      <point x="216" y="239"/>
      <point x="165" y="164"/>
    </contour>
  </outline>
</glyph>
<glyph name="ety183_cid16632_H" format="1">
  <advance width="1000"/>
  <outline>
    <contour>
      <point x="700" y="274" type="curve"/>
      <point x="577" y="300" type="line"/>
      <point x="529" y="225"/>
      <point x="459" y="129"/>
      <point x="408" y="69" type="curve"/>
      <point x="543" y="55" type="line"/>
      <point x="587" y="110"/>
      <point x="651" y="199"/>
    </contour>
    <contour>
      <point x="486" y="139" type="curve"/>
      <point x="408" y="68" type="line"/>
      <point x="561" y="28"/>
      <point x="765" y="-43"/>
      <point x="864" y="-95" type="curve"/>
      <point x="949" y="-13" type="line"/>
      <point x="839" y="39"/>
      <point x="632" y="105"/>
    </contour>
  </outline>
</glyph>
<glyph name="ety184_cid19500_EL" format="1">
  <advance width="1000"/>
  <outline>
    <contour>
      <point x="609" y="312" type="curve"/>
      <point x="579" y="320" type="line"/>
      <point x="536" y="243"/>
      <point x="474" y="140"/>
      <point x="427" y="77" type="curve"/>
      <point x="461" y="73" type="line"/>
      <point x="503" y="134"/>
      <point x="565" y="234"/>
    </contour>
    <contour>
      <point x="445" y="98" type="curve"/>
      <point x="427" y="76" type="line"/>
      <point x="590" y="44"/>
      <point x="794" y="-16"/>
      <point x="901" y="-65" type="curve"/>
      <point x="918" y="-39" type="line"/>
      <point x="808" y="11"/>
      <point x="606" y="68"/>
    </contour>
  </outline>
</glyph>
<glyph name="ety185_cid21717_H" format="1">
  <advance width="1000"/>
  <outline>
    <contour>
      <point x="522" y="276" type="curve"/>
      <point x="464" y="202" type="line"/>
      <point x="535" y="154"/>
      <point x="624" y="82"/>
      <point x="665" y="33" type="curve"/>
      <point x="727" y="117" type="line"/>
      <point x="684" y="164"/>
      <point x="593" y="231"/>
    </contour>
    <contour>
      <point x="632" y="461" type="curve"/>
      <point x="545" y="497" type="line"/>
      <point x="527" y="394"/>
      <point x="495" y="272"/>
      <point x="464" y="203" type="curve"/>
      <point x="487" y="190"/>
      <point x="520" y="167"/>
      <point x="536" y="152" type="curve"/>
      <point x="570" y="227"/>
      <point x="607" y="351"/>
    </contour>
  </outline>
</glyph>
<glyph name="ety188_cid22930_H" format="1">
  <advance width="1000"/>
  <outline>
    <contour>
      <point x="343" y="313" type="curve"/>
      <point x="220" y="345" type="line"/>
      <point x="180" y="262"/>
      <point x="119" y="155"/>
      <point x="75" y="88" type="curve"/>
      <point x="190" y="59" type="line"/>
      <point x="234" y="126"/>
      <point x="294" y="225"/>
    </contour>
    <contour>
      <point x="143" y="181" type="curve"/>
      <point x="74" y="88" type="line"/>
      <point x="216" y="43"/>
      <point x="393" y="-31"/>
      <point x="495" y="-88" type="curve"/>
      <point x="563" y="16" type="line"/>
      <point x="456" y="67"/>
      <point x="283" y="139"/>
    </contour>
  </outline>
</glyph>
<glyph name="ety189_cid23362_EL" format="1">
  <advance width="1000"/>
  <outline>
    <contour>
      <point x="391" y="242" type="curve"/>
      <point x="370" y="223" type="line"/>
      <point x="558" y="149"/>
      <point x="776" y="31"/>
      <point x="884" y="-58" type="curve"/>
      <point x="908" y="-35" type="line"/>
      <point x="798" y="53"/>
      <point x="579" y="169"/>
    </contour>
    <contour>
      <point x="605" y="608" type="curve"/>
      <point x="568" y="612" type="line"/>
      <point x="521" y="501"/>
      <point x="443" y="335"/>
      <point x="369" y="223" type="curve"/>
      <point x="377" y="220"/>
      <point x="389" y="215"/>
      <point x="397" y="212" type="curve"/>
      <point x="471" y="330"/>
      <point x="550" y="493"/>
    </contour>
  </outline>
</glyph>
<glyph name="ety190_cid23362_H" format="1">
  <advance width="1000"/>
  <outline>
    <contour>
      <point x="451" y="283" type="curve"/>
      <point x="349" y="189" type="line"/>
      <point x="516" y="112"/>
      <point x="746" y="-7"/>
      <point x="853" y="-86" type="curve"/>
      <point x="965" y="25" type="line"/>
      <point x="849" y="103"/>
      <point x="611" y="214"/>
    </contour>
    <contour>
      <point x="685" y="573" type="curve"/>
      <point x="521" y="598" type="line"/>
      <point x="474" y="474"/>
      <point x="401" y="278"/>
      <point x="348" y="189" type="curve"/>
      <point x="389" y="173"/>
      <point x="446" y="150"/>
      <point x="480" y="128" type="curve"/>
      <point x="535" y="228"/>
      <point x="618" y="433"/>
    </contour>
  </outline>
</glyph>
<glyph name="ety191_cid23944_EL" format="1">
  <advance width="1000"/>
  <outline>
    <contour>
      <point x="574" y="365" type="curve"/>
      <point x="547" y="372" type="line"/>
      <point x="505" y="290"/>
      <point x="442" y="180"/>
      <point x="398" y="112" type="curve"/>
      <point x="427" y="105" type="line"/>
      <point x="470" y="173"/>
      <point x="531" y="281"/>
    </contour>
    <contour>
      <point x="414" y="132" type="curve"/>
      <point x="397" y="111" type="line"/>
      <point x="581" y="56"/>
      <point x="759" y="-11"/>
      <point x="870" y="-68" type="curve"/>
      <point x="891" y="-45" type="line"/>
      <point x="776" y="13"/>
      <point x="595" y="81"/>
    </contour>
  </outline>
</glyph>
<glyph name="ety192_cid24192_EL" format="1">
  <advance width="1000"/>
  <outline>
    <contour>
      <point x="575" y="312" type="curve"/>
      <point x="546" y="320" type="line"/>
      <point x="503" y="243"/>
      <point x="440" y="140"/>
      <point x="394" y="77" type="curve"/>
      <point x="427" y="73" type="line"/>
      <point x="470" y="134"/>
      <point x="531" y="234"/>
    </contour>
    <contour>
      <point x="411" y="98" type="curve"/>
      <point x="394" y="76" type="line"/>
      <point x="562" y="45"/>
      <point x="771" y="-16"/>
      <point x="881" y="-65" type="curve"/>
      <point x="899" y="-38" type="line"/>
      <point x="784" y="12"/>
      <point x="576" y="69"/>
    </contour>
  </outline>
</glyph>
<glyph name="ety193_cid25445_EL" format="1">
  <advance width="1000"/>
  <outline>
    <contour>
      <point x="609" y="312" type="curve"/>
      <point x="579" y="320" type="line"/>
      <point x="536" y="243"/>
      <point x="474" y="140"/>
      <point x="427" y="77" type="curve"/>
      <point x="461" y="73" type="line"/>
      <point x="503" y="134"/>
      <point x="565" y="234"/>
    </contour>
    <contour>
      <point x="448" y="97" type="curve"/>
      <point x="427" y="76" type="line"/>
      <point x="591" y="42"/>
      <point x="796" y="-20"/>
      <point x="901" y="-70" type="curve"/>
      <point x="922" y="-46" type="line"/>
      <point x="811" y="6"/>
      <point x="609" y="65"/>
    </contour>
  </outline>
</glyph>
<glyph name="ety194_cid27000_EL" format="1">
  <advance width="1000"/>
  <outline>
    <contour>
      <point x="326" y="327" type="curve"/>
      <point x="295" y="335" type="line"/>
      <point x="256" y="263"/>
      <point x="200" y="166"/>
      <point x="159" y="105" type="curve"/>
      <point x="190" y="99" type="line"/>
      <point x="230" y="159"/>
      <point x="286" y="253"/>
    </contour>
    <contour>
      <point x="179" y="127" type="curve"/>
      <point x="159" y="104" type="line"/>
      <point x="272" y="75"/>
      <point x="411" y="18"/>
      <point x="483" y="-24" type="curve"/>
      <point x="503" y="1" type="line"/>
      <point x="429" y="41"/>
      <point x="289" y="97"/>
    </contour>
  </outline>
</glyph>
<glyph name="ety196_cid30433_H" format="1">
  <advance width="1000"/>
  <outline>
    <contour>
      <point x="171" y="115" type="curve"/>
      <point x="79" y="54" type="line"/>
      <point x="219" y="24"/>
      <point x="389" y="-37"/>
      <point x="482" y="-87" type="curve"/>
      <point x="573" y="-20" type="line"/>
      <point x="473" y="28"/>
      <point x="306" y="86"/>
    </contour>
    <contour>
      <point x="77" y="55" type="curve"/>
      <point x="197" y="55" type="line"/>
      <point x="219" y="90"/>
      <point x="250" y="147"/>
      <point x="270" y="196" type="curve"/>
      <point x="163" y="215" type="line"/>
      <point x="142" y="161"/>
      <point x="107" y="99"/>
    </contour>
  </outline>
</glyph>
<glyph name="ety197_cid32196_H" format="1">
  <advance width="1000"/>
  <outline>
    <contour>
      <point x="262" y="127" type="curve"/>
      <point x="157" y="48" type="line"/>
      <point x="383" y="16"/>
      <point x="663" y="-43"/>
      <point x="824" y="-92" type="curve"/>
      <point x="926" y="-7" type="line"/>
      <point x="751" y="40"/>
      <point x="479" y="97"/>
    </contour>
    <contour>
      <point x="157" y="49" type="curve"/>
      <point x="316" y="49" type="line"/>
      <point x="365" y="102"/>
      <point x="436" y="194"/>
      <point x="481" y="278" type="curve"/>
      <point x="348" y="315" type="line"/>
      <point x="302" y="224"/>
      <point x="222" y="118"/>
    </contour>
  </outline>
</glyph>
<glyph name="ety199_cid32358_H" format="1">
  <advance width="1000"/>
  <outline>
    <contour>
      <point x="712" y="301" type="curve"/>
      <point x="589" y="331" type="line"/>
      <point x="541" y="245"/>
      <point x="471" y="135"/>
      <point x="421" y="65" type="curve"/>
      <point x="555" y="49" type="line"/>
      <point x="599" y="112"/>
      <point x="663" y="215"/>
    </contour>
    <contour>
      <point x="495" y="154" type="curve"/>
      <point x="420" y="65" type="line"/>
      <point x="580" y="30"/>
      <point x="796" y="-40"/>
      <point x="903" y="-93" type="curve"/>
      <point x="984" y="10" type="line"/>
      <point x="867" y="62"/>
      <point x="647" y="126"/>
    </contour>
  </outline>
</glyph>
<glyph name="ety201_cid33556_EL" format="1">
  <advance width="1000"/>
  <outline>
    <contour>
      <point x="641" y="324" type="curve"/>
      <point x="611" y="331" type="line"/>
      <point x="572" y="259"/>
      <point x="516" y="162"/>
      <point x="475" y="101" type="curve"/>
      <point x="506" y="95" type="line"/>
      <point x="545" y="155"/>
      <point x="602" y="249"/>
    </contour>
    <contour>
      <point x="495" y="123" type="curve"/>
      <point x="475" y="100" type="line"/>
      <point x="624" y="61"/>
      <point x="808" y="-15"/>
      <point x="903" y="-69" type="curve"/>
      <point x="922" y="-44" type="line"/>
      <point x="826" y="9"/>
      <point x="641" y="83"/>
    </contour>
  </outline>
</glyph>
<glyph name="ety202_cid36447_EL" format="1">
  <advance width="1000"/>
  <outline>
    <contour>
      <point x="660" y="312" type="curve"/>
      <point x="630" y="320" type="line"/>
      <point x="587" y="243"/>
      <point x="525" y="140"/>
      <point x="478" y="77" type="curve"/>
      <point x="512" y="73" type="line"/>
      <point x="554" y="134"/>
      <point x="616" y="234"/>
    </contour>
    <contour>
      <point x="499" y="96" type="curve"/>
      <point x="478" y="76" type="line"/>
      <point x="629" y="42"/>
      <point x="817" y="-18"/>
      <point x="914" y="-65" type="curve"/>
      <point x="935" y="-42" type="line"/>
      <point x="832" y="8"/>
      <point x="646" y="65"/>
    </contour>
  </outline>
</glyph>
<glyph name="ety204_cid41624_EL" format="1">
  <advance width="1000"/>
  <outline>
    <contour>
      <point x="498" y="244" type="curve"/>
      <point x="478" y="223" type="line"/>
      <point x="632" y="149"/>
      <point x="811" y="31"/>
      <point x="898" y="-58" type="curve"/>
      <point x="919" y="-33" type="line"/>
      <point x="830" y="55"/>
      <point x="652" y="172"/>
    </contour>
    <contour>
      <point x="672" y="607" type="curve"/>
      <point x="639" y="612" type="line"/>
      <point x="601" y="501"/>
      <point x="537" y="334"/>
      <point x="476" y="223" type="curve"/>
      <point x="484" y="220"/>
      <point x="495" y="215"/>
      <point x="502" y="211" type="curve"/>
      <point x="562" y="328"/>
      <point x="627" y="492"/>
    </contour>
  </outline>
</glyph>
<glyph name="ety205_cid43499_H" format="1">
  <advance width="1000"/>
  <outline>
    <contour>
      <point x="244" y="105" type="curve"/>
      <point x="160" y="27" type="line"/>
      <point x="386" y="1"/>
      <point x="669" y="-51"/>
      <point x="831" y="-96" type="curve"/>
      <point x="912" y="-11" type="line"/>
      <point x="738" y="32"/>
      <point x="463" y="81"/>
    </contour>
    <contour>
      <point x="160" y="28" type="curve"/>
      <point x="320" y="28" type="line"/>
      <point x="364" y="78"/>
      <point x="429" y="164"/>
      <point x="469" y="240" type="curve"/>
      <point x="333" y="273" type="line"/>
      <point x="291" y="190"/>
      <point x="219" y="92"/>
    </contour>
  </outline>
</glyph>
<glyph name="ety206_cid44003_H" format="1">
  <advance width="1000"/>
  <outline>
    <contour>
      <point x="168" y="340" type="curve"/>
      <point x="82" y="250" type="line"/>
      <point x="190" y="178"/>
      <point x="331" y="69"/>
      <point x="393" y="-5" type="curve"/>
      <point x="488" y="99" type="line"/>
      <point x="419" y="174"/>
      <point x="273" y="275"/>
    </contour>
    <contour>
      <point x="338" y="588" type="curve"/>
      <point x="208" y="608" type="line"/>
      <point x="181" y="483"/>
      <point x="131" y="328"/>
      <point x="80" y="251" type="curve"/>
      <point x="111" y="235"/>
      <point x="156" y="207"/>
      <point x="179" y="187" type="curve"/>
      <point x="237" y="276"/>
      <point x="298" y="447"/>
    </contour>
  </outline>
</glyph>
<glyph name="ety208_cid45234_H" format="1">
  <advance width="1000"/>
  <outline>
    <contour>
      <point x="738" y="309" type="curve"/>
      <point x="608" y="341" type="line"/>
      <point x="565" y="258"/>
      <point x="502" y="151"/>
      <point x="455" y="84" type="curve"/>
      <point x="576" y="55" type="line"/>
      <point x="623" y="122"/>
      <point x="686" y="221"/>
    </contour>
    <contour>
      <point x="526" y="177" type="curve"/>
      <point x="454" y="84" type="line"/>
      <point x="604" y="39"/>
      <point x="791" y="-35"/>
      <point x="898" y="-92" type="curve"/>
      <point x="969" y="12" type="line"/>
      <point x="857" y="63"/>
      <point x="675" y="135"/>
    </contour>
  </outline>
</glyph>
<glyph name="ety209_cid46260_H" format="1">
  <advance width="1000"/>
  <outline>
    <contour>
      <point x="165" y="340" type="curve"/>
      <point x="81" y="250" type="line"/>
      <point x="187" y="178"/>
      <point x="323" y="69"/>
      <point x="384" y="-5" type="curve"/>
      <point x="477" y="99" type="line"/>
      <point x="410" y="174"/>
      <point x="268" y="275"/>
    </contour>
    <contour>
      <point x="331" y="588" type="curve"/>
      <point x="204" y="608" type="line"/>
      <point x="178" y="483"/>
      <point x="129" y="328"/>
      <point x="80" y="251" type="curve"/>
      <point x="109" y="235"/>
      <point x="153" y="207"/>
      <point x="176" y="187" type="curve"/>
      <point x="233" y="276"/>
      <point x="292" y="447"/>
    </contour>
  </outline>
</glyph>
<glyph name="ety210_cid46562_EL" format="1">
  <advance width="1000"/>
  <outline>
    <contour>
      <point x="326" y="327" type="curve"/>
      <point x="295" y="335" type="line"/>
      <point x="256" y="263"/>
      <point x="200" y="166"/>
      <point x="159" y="105" type="curve"/>
      <point x="190" y="99" type="line"/>
      <point x="230" y="159"/>
      <point x="286" y="253"/>
    </contour>
    <contour>
      <point x="179" y="126" type="curve"/>
      <point x="159" y="104" type="line"/>
      <point x="263" y="69"/>
      <point x="390" y="5"/>
      <point x="457" y="-39" type="curve"/>
      <point x="476" y="-16" type="line"/>
      <point x="410" y="28"/>
      <point x="281" y="90"/>
    </contour>
  </outline>
</glyph>
